<svg width="81" height="97" viewBox="0 0 81 97" fill="none" xmlns="http://www.w3.org/2000/svg">
<path d="M0.487325 53.1074H20.51C19.9319 61.0783 21.1494 68.3183 27.813 73.5885C31.8451 76.7769 36.4325 78.1367 41.5673 77.8667C53.2659 77.2535 59.2957 69.5525 60.6178 53.1985H80.6507C80.6507 55.146 80.6859 56.9046 80.6438 58.6632C80.5337 63.3424 79.0503 64.67 74.3403 65.1821C72.841 65.3454 70.4968 66.2842 70.2128 67.3118C69.5189 69.8236 66.3035 72.1588 69.7426 75.356C73.6679 79.0054 73.2965 80.8651 69.3678 84.8278C64.5396 89.697 63.2244 90.0258 58.7335 86.1365C55.4568 83.2992 53.3363 86.5131 50.8228 87.1585C49.7393 87.4363 48.5467 89.3482 48.3763 90.6391C47.6835 95.9049 46.6738 96.8358 40.4611 96.8414C34.2961 96.8469 33.2705 95.8915 32.5686 90.5891C32.3993 89.3126 31.1522 87.4385 30.0539 87.163C27.5405 86.5331 25.3984 83.3758 22.1341 86.2442C17.8012 90.0514 16.3394 89.6559 11.4737 84.73C7.67113 80.8807 7.73133 79.4387 11.1228 75.0972C11.9314 74.0618 12.4187 72.0632 11.953 70.9489C11.0682 68.8304 9.69963 65.7142 7.9846 65.3254C0.416904 63.6101 0.120466 63.6468 0.281747 55.9525C0.297648 55.2082 0.388511 54.465 0.489595 53.1085L0.487325 53.1074Z" fill="#21325D"/>
<path d="M26.0798 8.84065C27.9765 7.54198 29.9868 6.37439 31.7484 4.91907C36.9355 0.633102 40.9119 -0.157879 45.0757 2.46836C54.5594 8.45072 55.0671 10.5037 53.5565 18.4635C52.7751 22.5829 51.812 26.1989 49.3769 29.5684C46.6192 33.3855 40.5519 34.9464 36.3313 32.7523C33.1602 31.1037 29.6291 23.5971 29.6268 20.0422C29.6234 16.6538 28.7454 13.2666 28.2525 9.87937C27.5279 9.53276 26.8032 9.18615 26.0786 8.84065H26.0798Z" fill="#21325D"/>
<path d="M38.7709 43.1847C38.9696 40.7973 39.1695 38.4099 39.4035 35.606H43.4389C43.5775 38.0344 43.7092 40.3285 43.841 42.6237C44.2385 42.6681 44.6349 42.7137 45.0324 42.7581C46.1387 40.0997 47.2438 37.4423 48.3364 34.8161C64.7711 38.8465 65.7013 39.5764 65.7627 48.6072H16.563C16.2711 41.4772 18.4075 38.6721 25.1358 37.0557C27.9548 36.378 30.733 35.5393 34.0756 34.625C35.1909 37.4468 36.3755 40.4418 37.559 43.4358C37.9633 43.3525 38.3665 43.2691 38.7709 43.1858V43.1847Z" fill="#21325D"/>
<path d="M11.9867 48.6686H0.59478C-0.74544 39.7634 9.05407 40.871 12.4376 35.9985C11.4858 34.5431 10.6067 33.1667 9.69579 31.8102C6.43496 26.9555 7.87513 18.9601 12.6363 15.5396C17.5031 12.0435 24.6358 15.0241 25.8818 21.0731C27.5945 29.3851 26.6666 30.6449 19.1841 35.3674C16.6229 36.9838 15.0226 40.2778 13.4211 43.0473C12.4978 44.6448 12.4478 46.7267 11.9867 48.6675V48.6686Z" fill="#21325D"/>
<path d="M80.5302 48.8165C78.8276 48.8165 77.4374 48.6599 76.0961 48.8454C71.7529 49.4453 69.3882 48.3055 68.9793 43.4196C68.6068 38.9681 65.7219 35.4832 61.0947 34.42C57.2694 33.5412 54.2698 31.1116 54.497 27.9788C54.7957 23.8517 53.6962 18.5792 58.5846 15.8519C60.7551 14.641 64.2124 12.6835 65.4958 13.4901C68.584 15.4286 72.1674 17.4672 72.4536 22.2542C72.716 26.6324 73.0056 30.4773 69.7516 34.1678C67.0019 37.2862 70.6568 38.2071 72.6365 39.1203C76.1381 40.7356 79.8975 41.9165 80.5188 46.428C80.5994 47.0113 80.5302 47.6134 80.5302 48.8154V48.8165Z" fill="#21325D"/>
<path d="M27.5126 53.0879H53.4004C54.9859 59.8112 53.3186 64.7149 48.4779 68.0321C43.7429 71.276 37.2689 71.2727 32.4714 68.0243C27.6511 64.7615 25.9963 59.9268 27.5137 53.089L27.5126 53.0879Z" fill="#21325D"/>
</svg>
