<?xml version="1.0" encoding="UTF-8"?>
<!-- Generator: Adobe Illustrator 24.2.3, SVG Export Plug-In . SVG Version: 6.00 Build 0)  -->
<svg xmlns="http://www.w3.org/2000/svg" xmlns:xlink="http://www.w3.org/1999/xlink" version="1.1" id="Capa_1" x="0px" y="0px" viewBox="0 0 512.111 512.111" style="enable-background:new 0 0 512.111 512.111;" xml:space="preserve" width="512" height="512">
<g>
	<path style="fill:#33CCCC;" d="M480.08,254.643c4.28-4.311,4.256-11.275-0.055-15.556c-4.31-4.281-11.274-4.257-15.557,0.054   l-8.1,8.156l1.656,29.555L480.08,254.643z"/>
	<path style="fill:#33CCCC;" d="M469.674,330.026l-8.208,8.266l1.656,29.554l22.163-22.318c4.281-4.311,4.257-11.275-0.054-15.556   C480.921,325.692,473.957,325.714,469.674,330.026z"/>
	<path style="fill:#33CCCC;" d="M275.35,48.484c4.281-4.311,4.257-11.275-0.054-15.556c-4.311-4.28-11.275-4.257-15.556,0.054   l-22.019,22.172l29.349,1.667L275.35,48.484z"/>
	<path style="fill:#33CCCC;" d="M185.095,43.242c4.281-4.311,4.257-11.275-0.054-15.556c-4.311-4.281-11.276-4.256-15.556,0.054   l-22.127,22.281l29.349,1.667L185.095,43.242z"/>
</g>
<path d="M482.849,108.39c24.89-33.049,41.992-68.619,17.061-95.348C491.695,4.771,481.393,0.67,469.215,0.84  c-29.887-1.222-76.296,36.714-94.927,57.049l-4.721,4.754L64.911,45.338c-3.057-0.175-6.037,0.93-8.241,3.046  c-2.205,2.116-3.43,5.054-3.381,8.109l0.835,52.979c0.061,3.883,2.166,7.446,5.537,9.375l162.041,92.695l-18.551,18.681  c-9.054,8.261-59.315,72.388-68.292,82.992L43.683,266.65c-4.26-2.175-9.438-1.349-12.809,2.045l-27.68,27.873  c-4.26,4.29-4.26,11.212,0,15.502l72.163,72.667l-9.64,11.573c-0.044,0.053-0.087,0.105-0.129,0.159  c-19.837,24.381-1.892,61.581,29.209,61.359c15.986-0.038,23.653-8.504,35.159-18.11l67.859,68.333  c2.065,2.08,4.875,3.249,7.805,3.249s5.74-1.169,7.805-3.249l27.68-27.873c3.281-3.304,4.126-8.315,2.111-12.512l-41.963-87.397  c11.827-10.024,73.149-57.879,82.537-68.167c0,0,18.849-18.981,18.849-18.981l91.962,163.011c1.92,3.402,5.5,5.531,9.405,5.594  l52.611,0.841c3.049,0.05,5.993-1.174,8.107-3.377c2.117-2.203,3.222-5.187,3.051-8.236L450.59,144.139l4.784-4.817  C456.863,137.896,469.754,125.414,482.849,108.39z M76.022,102.862l-0.55-34.888l273.381,15.529L237.753,195.38L76.022,102.862z   M104.348,432.482c-14.826,11.165-32.815-7.612-21.651-22.182l8.232-9.884l23.471,23.635L104.348,432.482z M205.622,484.689  c-43.056-43.357-136.849-137.804-179.119-180.37l14.325-14.424l90.411,46.175l47.221,47.551l41.564,86.566L205.622,484.689z   M268.18,296.601c-7.562,8.509-69.892,57.359-79.802,65.787l-35.821-36.072c8.623-10.158,57.955-73.059,66.203-80.591  c19.26-18.2,183.965-188.354,200.021-198.348c22.672-17.292,50.399-33.525,65.517-18.834c23.105,24.563-31.421,82.641-44.433,95.173  C439.866,123.716,268.18,296.601,268.18,296.601z M445.151,440.382l-34.486-0.551L318.749,276.9l110.984-111.759L445.151,440.382z"/>















</svg>
