<svg width="156" height="156" viewBox="0 0 156 156" fill="none" xmlns="http://www.w3.org/2000/svg">
<g id="Calendar New 1">
<path id="Vector" d="M76.412 133.631H9.41797C8.93312 133.631 8.46813 133.823 8.12529 134.166C7.78245 134.509 7.58984 134.974 7.58984 135.459C7.58984 135.944 7.78245 136.409 8.12529 136.752C8.46813 137.094 8.93312 137.287 9.41797 137.287H76.412C76.8969 137.287 77.3619 137.094 77.7047 136.752C78.0476 136.409 78.2402 135.944 78.2402 135.459C78.2402 134.974 78.0476 134.509 77.7047 134.166C77.3619 133.823 76.8969 133.631 76.412 133.631Z" fill="url(#paint0_linear_5_2775)"/>
<path id="Vector_2" d="M14.0391 51.4629C13.5542 51.4629 13.0892 51.6555 12.7464 51.9983C12.4035 52.3412 12.2109 52.8062 12.2109 53.291V55.2124C12.2109 55.6972 12.4035 56.1622 12.7464 56.5051C13.0892 56.8479 13.5542 57.0405 14.0391 57.0405C14.5239 57.0405 14.9889 56.8479 15.3317 56.5051C15.6746 56.1622 15.8672 55.6972 15.8672 55.2124V53.291C15.8672 52.8062 15.6746 52.3412 15.3317 51.9983C14.9889 51.6555 14.5239 51.4629 14.0391 51.4629Z" fill="url(#paint1_linear_5_2775)"/>
<path id="Vector_3" d="M14.0391 60.4043C13.5542 60.4043 13.0892 60.5969 12.7464 60.9397C12.4035 61.2826 12.2109 61.7476 12.2109 62.2324V89.0979C12.2109 89.5828 12.4035 90.0478 12.7464 90.3906C13.0892 90.7335 13.5542 90.9261 14.0391 90.9261C14.5239 90.9261 14.9889 90.7335 15.3317 90.3906C15.6746 90.0478 15.8672 89.5828 15.8672 89.0979V62.2324C15.8672 61.7476 15.6746 61.2826 15.3317 60.9397C14.9889 60.5969 14.5239 60.4043 14.0391 60.4043Z" fill="url(#paint2_linear_5_2775)"/>
<path id="Vector_4" d="M54.2006 57.1213H46.0614C45.0981 57.1225 44.1746 57.5056 43.4934 58.1868C42.8122 58.8679 42.4289 59.7914 42.4277 60.7547V73.5498C42.4289 74.5131 42.8122 75.4366 43.4934 76.1176C44.1746 76.7987 45.0981 77.1818 46.0614 77.1829H54.2006C55.1638 77.1818 56.0873 76.7987 56.7685 76.1176C57.4496 75.4365 57.8328 74.513 57.834 73.5498V60.7547C57.8328 59.7914 57.4497 58.8679 56.7685 58.1868C56.0874 57.5056 55.1638 57.1225 54.2006 57.1213ZM54.1777 73.5266H46.084V68.9813H54.1777V73.5266ZM54.1777 65.3247H46.084V60.7776H54.1777V65.3247Z" fill="#E73C34" fill-opacity="0.56"/>
<path id="Vector_5" d="M33.9252 57.1211H25.786C24.8227 57.1222 23.8992 57.5054 23.218 58.1865C22.5368 58.8677 22.1536 59.7912 22.1523 60.7545V73.5495C22.1536 74.5128 22.5368 75.4363 23.218 76.1174C23.8992 76.7985 24.8228 77.1816 25.786 77.1826H33.9252C34.8884 77.1816 35.8119 76.7985 36.4931 76.1174C37.1743 75.4363 37.5574 74.5128 37.5586 73.5495V60.7545C37.5574 59.7912 37.1743 58.8677 36.4931 58.1865C35.812 57.5054 34.8885 57.1222 33.9252 57.1211ZM33.9023 73.5264H25.8086V68.9811H33.9023V73.5264ZM33.9023 65.3245H25.8086V60.7773H33.9023V65.3245Z" fill="#E73C34" fill-opacity="0.56"/>
<path id="Vector_6" d="M74.4756 57.1211H66.3368C65.3735 57.1221 64.4499 57.5053 63.7687 58.1864C63.0875 58.8676 62.7043 59.7911 62.7031 60.7545V73.5495C62.7043 74.5129 63.0875 75.4364 63.7687 76.1175C64.4499 76.7986 65.3735 77.1817 66.3368 77.1826H74.4756C75.4389 77.1816 76.3624 76.7985 77.0436 76.1174C77.7247 75.4363 78.1079 74.5128 78.109 73.5495V60.7545C78.1079 59.7912 77.7247 58.8677 77.0436 58.1865C76.3624 57.5054 75.4389 57.1222 74.4756 57.1211ZM74.4528 73.5264H66.3594V68.9811H74.4528V73.5264ZM74.4528 65.3245H66.3594V60.7773H74.4528V65.3245Z" fill="url(#paint3_linear_5_2775)"/>
<path id="Vector_7" d="M86.6103 77.1826H94.7491C95.7124 77.1817 96.6361 76.7987 97.3174 76.1176C97.9987 75.4365 98.382 74.5129 98.3831 73.5495V60.7545C98.382 59.7912 97.9989 58.8676 97.3177 58.1864C96.6366 57.5053 95.713 57.1221 94.7497 57.1211H86.6103C85.6469 57.1221 84.7233 57.5053 84.0421 58.1864C83.3609 58.8676 82.9777 59.7911 82.9766 60.7545V73.5495C82.9777 74.5129 83.3609 75.4364 84.0421 76.1175C84.7234 76.7986 85.6469 77.1817 86.6103 77.1826ZM86.6328 60.7773H94.7268V65.3248H86.6328V60.7773ZM86.6328 68.9807H94.7268V73.5264H86.6328V68.9807Z" fill="url(#paint4_linear_5_2775)"/>
<path id="Vector_8" d="M54.2006 83.499H46.0614C45.0981 83.5002 44.1745 83.8833 43.4933 84.5646C42.8121 85.2458 42.4289 86.1694 42.4277 87.1327V99.9272C42.4289 100.891 42.8121 101.814 43.4933 102.495C44.1745 103.177 45.0981 103.56 46.0614 103.561H54.2006C55.1639 103.56 56.0875 103.177 56.7686 102.495C57.4498 101.814 57.8329 100.891 57.834 99.9272V87.1327C57.8329 86.1694 57.4498 85.2458 56.7686 84.5646C56.0875 83.8834 55.1639 83.5002 54.2006 83.499ZM54.1777 99.9046H46.084V95.3587H54.1777V99.9046ZM54.1777 91.7024H46.084V87.1553H54.1777V91.7024Z" fill="url(#paint5_linear_5_2775)"/>
<path id="Vector_9" d="M33.9252 83.499H25.786C24.8227 83.5002 23.8991 83.8833 23.2179 84.5646C22.5367 85.2458 22.1535 86.1694 22.1523 87.1327V99.9272C22.1535 100.891 22.5367 101.814 23.2179 102.495C23.8991 103.177 24.8227 103.56 25.786 103.561H33.9252C34.8885 103.56 35.8121 103.177 36.4932 102.495C37.1744 101.814 37.5575 100.891 37.5586 99.9272V87.1327C37.5575 86.1694 37.1744 85.2458 36.4932 84.5646C35.8121 83.8834 34.8885 83.5002 33.9252 83.499ZM33.9023 99.9046H25.8086V95.3587H33.9023V99.9046ZM33.9023 91.7024H25.8086V87.1553H33.9023V91.7024Z" fill="url(#paint6_linear_5_2775)"/>
<path id="Vector_10" d="M74.4756 83.499H66.3368C65.3735 83.5002 64.4499 83.8833 63.7687 84.5646C63.0875 85.2458 62.7043 86.1694 62.7031 87.1327V99.9272C62.7043 100.891 63.0875 101.814 63.7687 102.495C64.4499 103.177 65.3735 103.56 66.3368 103.561H74.4756C75.439 103.56 76.3625 103.177 77.0437 102.495C77.7249 101.814 78.108 100.891 78.109 99.9272V87.1327C78.108 86.1694 77.7249 85.2458 77.0437 84.5646C76.3625 83.8834 75.439 83.5002 74.4756 83.499ZM74.4528 99.9046H66.3594V95.3587H74.4528V99.9046ZM74.4528 91.7024H66.3594V87.1553H74.4528V91.7024Z" fill="url(#paint7_linear_5_2775)"/>
<path id="Vector_11" d="M138.518 31.8879L116.459 53.9473V32.8452C116.456 29.6412 115.183 26.5691 112.918 24.3025C110.654 22.0359 107.583 20.7599 104.379 20.7543H99.6889V17.0195C99.6888 14.5839 98.7212 12.2481 96.999 10.5259C95.2767 8.80369 92.9409 7.83618 90.5053 7.83618H89.6479C87.2123 7.83618 84.8765 8.8037 83.1543 10.5259C81.4321 12.2481 80.4646 14.5839 80.4646 17.0195V20.7528H39.0384V17.0195C39.0383 14.5839 38.0707 12.2481 36.3485 10.5259C34.6262 8.80369 32.2904 7.83618 29.8548 7.83618H28.9977C26.5622 7.83618 24.2264 8.8037 22.5042 10.5259C20.782 12.2481 19.8144 14.5839 19.8144 17.0195V20.7528H15.1253C11.9217 20.7585 8.85103 22.0345 6.5868 24.3009C4.32256 26.5673 3.04953 29.6392 3.04688 32.8428V114.338C3.04953 117.542 4.32271 120.614 6.58719 122.881C8.85167 125.147 11.9226 126.423 15.1265 126.429H83.9554C85.8797 131.951 89.2659 136.847 93.7533 140.596C98.2407 144.345 103.661 146.807 109.437 147.719C115.213 148.63 121.128 147.958 126.552 145.773C131.976 143.588 136.706 139.973 140.238 135.312C143.769 130.651 145.97 125.12 146.606 119.307C147.241 113.494 146.288 107.618 143.848 102.304C141.407 96.99 137.571 92.4377 132.748 89.132C127.924 85.8264 122.294 83.8912 116.458 83.5327V76.7224C118.02 75.777 119.462 74.6466 120.754 73.3556L150.369 43.7399C151.941 42.1998 152.865 40.1165 152.949 37.9174C152.985 36.7456 152.772 35.5795 152.326 34.4954C151.88 33.4114 151.21 32.4336 150.36 31.6262C147.049 28.4577 141.76 28.646 138.518 31.8879ZM84.1209 17.0192C84.1225 15.5538 84.7053 14.1489 85.7415 13.1127C86.7776 12.0766 88.1825 11.4937 89.6479 11.4921H90.5053C91.9707 11.4937 93.3756 12.0766 94.4118 13.1127C95.448 14.1489 96.0309 15.5538 96.0326 17.0192V24.2631C96.0309 25.7285 95.448 27.1334 94.4118 28.1695C93.3756 29.2057 91.9707 29.7885 90.5053 29.7901H89.6479C88.1825 29.7885 86.7776 29.2057 85.7415 28.1695C84.7053 27.1334 84.1225 25.7285 84.1209 24.2631V17.0192ZM23.4707 17.0192C23.4723 15.5538 24.0551 14.1489 25.0913 13.1127C26.1275 12.0766 27.5324 11.4937 28.9977 11.4921H29.8551C31.3205 11.4937 32.7254 12.0766 33.7615 13.1127C34.7977 14.1489 35.3805 15.5538 35.3821 17.0192V24.2631C35.3805 25.7285 34.7977 27.1334 33.7615 28.1695C32.7254 29.2057 31.3205 29.7885 29.8551 29.7901H28.9977C27.5324 29.7885 26.1275 29.2057 25.0913 28.1695C24.0551 27.1334 23.4723 25.7285 23.4707 24.2631V17.0192ZM82.1684 115.817C82.168 118.156 82.4209 120.488 82.9228 122.773H15.1277C12.893 122.769 10.7512 121.878 9.17186 120.297C7.59255 118.716 6.70473 116.573 6.70312 114.339V45.1269H14.4465C14.9313 45.1269 15.3963 44.9343 15.7391 44.5914C16.082 44.2486 16.2746 43.7836 16.2746 43.2988C16.2746 42.8139 16.082 42.3489 15.7391 42.0061C15.3963 41.6632 14.9313 41.4706 14.4465 41.4706H6.70312V32.8422C6.7049 30.6078 7.59262 28.4653 9.17164 26.8845C10.7507 25.3036 12.8921 24.4134 15.1265 24.409H19.8187C19.8593 26.8178 20.844 29.1144 22.5608 30.8046C24.2775 32.4947 26.5892 33.4434 28.9983 33.4464H29.8557C32.2649 33.4434 34.5765 32.4947 36.2933 30.8046C38.0101 29.1144 38.9947 26.8178 39.0353 24.409H80.468C80.5086 26.8178 81.4933 29.1144 83.21 30.8046C84.9268 32.4947 87.2385 33.4434 89.6476 33.4464H90.505C92.9141 33.4434 95.2258 32.4947 96.9426 30.8046C98.6593 29.1144 99.644 26.8178 99.6846 24.409H104.377C106.612 24.413 108.753 25.3031 110.333 26.8841C111.912 28.4652 112.8 30.6081 112.802 32.8428V41.4706H29.6808C29.196 41.4706 28.731 41.6632 28.3881 42.0061C28.0453 42.3489 27.8527 42.8139 27.8527 43.2988C27.8527 43.7836 28.0453 44.2486 28.3881 44.5914C28.731 44.9343 29.196 45.1269 29.6808 45.1269H112.801V57.6045L108.901 61.5044C105.783 64.6191 103.641 68.5763 102.739 72.8906L102.567 73.7133C102.375 74.6416 101.956 75.5076 101.346 76.233C98.4177 79.676 98.9061 81.5023 99.8315 82.4277C100.059 82.6594 100.331 82.8423 100.632 82.9652C100.933 83.0881 101.255 83.1484 101.58 83.1424C102.625 83.1424 104.063 82.5836 106.026 80.914C106.752 80.3039 107.618 79.8842 108.546 79.6931L109.367 79.5206C110.537 79.2744 111.685 78.9364 112.801 78.5097V83.5148C107.725 83.7738 102.783 85.2359 98.383 87.7804V87.1342C98.3819 86.1708 97.9988 85.2472 97.3176 84.566C96.6365 83.8848 95.7129 83.5016 94.7496 83.5005H86.6108C85.6474 83.5016 84.7238 83.8848 84.0426 84.566C83.3614 85.2472 82.9782 86.1708 82.9771 87.1342V99.9286C82.9778 100.564 83.1454 101.189 83.4632 101.74C83.7809 102.29 84.2375 102.748 84.7875 103.067C83.0555 107.094 82.1642 111.433 82.1684 115.817ZM109.737 66.1043L116.153 72.5204C113.923 74.201 111.35 75.3688 108.616 75.9405L107.795 76.113C106.879 76.3049 105.997 76.6312 105.176 77.0813C105.627 76.2605 105.953 75.3774 106.145 74.461L106.317 73.6402C106.889 70.9073 108.057 68.3342 109.737 66.1043ZM86.6333 91.7023V87.1552H94.7273V90.2383C94.1247 90.7055 93.5394 91.1935 92.9714 91.7023H86.6333ZM89.4721 95.3586C88.4235 96.6411 87.4745 98.0018 86.6333 99.4289V95.3586H89.4721ZM143.142 115.817C143.136 121.484 141.45 127.022 138.297 131.731C135.144 136.439 130.666 140.108 125.429 142.272C120.192 144.436 114.43 144.999 108.873 143.89C103.316 142.781 98.2122 140.049 94.2073 136.04C90.2024 132.03 87.476 126.924 86.3728 121.365C85.2695 115.807 85.8389 110.046 88.0089 104.811C90.179 99.5763 93.8523 95.1023 98.5645 91.9546C103.277 88.8069 108.816 87.1268 114.483 87.1268C122.086 87.1396 129.372 90.1674 134.745 95.546C140.118 100.925 143.138 108.215 143.142 115.817ZM118.871 70.0677L112.19 63.3865L128.222 47.3542L134.903 54.0356L118.871 70.0677ZM137.487 51.4513L130.806 44.7701L138.271 37.3053L144.952 43.9864L137.487 51.4513ZM147.912 41.027L147.538 41.4015L140.857 34.7191L141.231 34.3449C142.117 33.4588 143.319 32.961 144.572 32.961C145.825 32.9609 147.027 33.4586 147.913 34.3446C148.799 35.2306 149.297 36.4323 149.297 37.6853C149.297 38.9383 148.799 40.14 147.913 41.0261L147.912 41.027Z" fill="url(#paint8_linear_5_2775)"/>
<path id="Vector_12" d="M130.279 118.685C130.259 118.655 130.237 118.627 130.215 118.598L124.355 111.191L129.489 104.415C129.954 103.9 130.311 103.297 130.541 102.643C130.771 101.988 130.868 101.294 130.828 100.602C130.787 99.9093 130.609 99.2317 130.304 98.6086C129.999 97.9854 129.573 97.4292 129.051 96.9722C128.499 96.4887 127.852 96.1264 127.151 95.9085C126.451 95.6907 125.712 95.6222 124.983 95.7074C124.255 95.7927 123.552 96.0298 122.92 96.4034C122.289 96.7771 121.743 97.279 121.318 97.8768L115.603 105.552L106.995 102.76C106.94 102.742 106.885 102.727 106.829 102.714C105.147 102.34 102.843 101.825 101.513 103.799C101.16 104.322 100.236 105.74 100.236 105.74C100.094 105.958 99.9996 106.205 99.9602 106.463C99.9209 106.721 99.9372 106.984 100.008 107.235C100.079 107.486 100.203 107.719 100.371 107.918C100.54 108.118 100.749 108.279 100.985 108.39L110.582 112.94L106.349 120.009C99.7347 122.323 99.7228 122.34 99.3319 122.924C99.1949 123.129 99.1008 123.359 99.0551 123.601C99.0094 123.844 99.0132 124.093 99.0662 124.333C99.1192 124.574 99.2203 124.801 99.3635 125.002C99.5066 125.203 99.6889 125.372 99.8993 125.501L111.495 132.578C111.897 132.824 112.379 132.905 112.84 132.803C113.301 132.702 113.704 132.427 113.967 132.035C114.41 131.372 114.427 131.346 113.463 125.26L118.435 118.789L126.825 125.797C127.118 126.042 127.481 126.189 127.862 126.217C128.243 126.245 128.624 126.153 128.95 125.954C130.191 125.195 131.002 124.506 131.361 123.905C132.572 121.879 131.367 120.202 130.568 119.091C130.475 118.961 130.377 118.827 130.279 118.685ZM128.099 122.098L119.316 114.763C119.127 114.605 118.908 114.487 118.673 114.416C118.437 114.345 118.189 114.323 117.945 114.35C117.7 114.377 117.463 114.453 117.249 114.574C117.034 114.694 116.846 114.857 116.696 115.052L110.084 123.657C109.933 123.854 109.824 124.079 109.762 124.32C109.701 124.561 109.69 124.811 109.728 125.056C109.854 125.849 109.982 126.671 110.101 127.445L105.031 124.35C106.023 123.998 107.124 123.61 108.18 123.241C108.584 123.1 108.925 122.821 109.145 122.454L114.753 113.09C114.884 112.871 114.967 112.628 114.998 112.375C115.029 112.122 115.007 111.865 114.933 111.621C114.859 111.377 114.735 111.152 114.569 110.959C114.403 110.765 114.198 110.609 113.968 110.5L104.492 106.008C104.983 106.06 105.469 106.146 105.949 106.265L115.721 109.434C116.085 109.552 116.476 109.553 116.841 109.437C117.205 109.321 117.524 109.094 117.752 108.787L124.262 100.043C124.272 100.029 124.282 100.016 124.293 100.002C124.418 99.8251 124.578 99.6754 124.763 99.5624C124.948 99.4495 125.154 99.3758 125.369 99.3458C125.584 99.3158 125.802 99.3303 126.011 99.3882C126.22 99.4461 126.415 99.5463 126.584 99.6826C126.752 99.8189 126.891 99.9883 126.992 100.18C127.092 100.373 127.152 100.583 127.168 100.799C127.184 101.016 127.155 101.233 127.084 101.438C127.012 101.642 126.899 101.83 126.752 101.989C126.708 102.037 126.666 102.086 126.627 102.138L120.586 110.112C120.341 110.435 120.211 110.83 120.215 111.236C120.219 111.641 120.358 112.033 120.609 112.351L127.314 120.826C127.411 120.964 127.507 121.097 127.599 121.226C127.79 121.491 128.036 121.833 128.155 122.051C128.137 122.065 128.119 122.081 128.099 122.096V122.098Z" fill="url(#paint9_linear_5_2775)"/>
</g>
<defs>
<linearGradient id="paint0_linear_5_2775" x1="42.9151" y1="137.203" x2="42.9151" y2="133.776" gradientUnits="userSpaceOnUse">
<stop stop-color="#294DA9"/>
<stop offset="0.541667" stop-color="#1847C2"/>
<stop offset="1" stop-color="#5F8BFF"/>
</linearGradient>
<linearGradient id="paint1_linear_5_2775" x1="14.0391" y1="56.9121" x2="14.0391" y2="51.6838" gradientUnits="userSpaceOnUse">
<stop stop-color="#294DA9"/>
<stop offset="0.541667" stop-color="#1847C2"/>
<stop offset="1" stop-color="#5F8BFF"/>
</linearGradient>
<linearGradient id="paint2_linear_5_2775" x1="14.0391" y1="90.2237" x2="14.0391" y2="61.613" gradientUnits="userSpaceOnUse">
<stop stop-color="#294DA9"/>
<stop offset="0.541667" stop-color="#1847C2"/>
<stop offset="1" stop-color="#5F8BFF"/>
</linearGradient>
<linearGradient id="paint3_linear_5_2775" x1="70.4061" y1="76.721" x2="70.4061" y2="57.9155" gradientUnits="userSpaceOnUse">
<stop stop-color="#294DA9"/>
<stop offset="0.541667" stop-color="#1847C2"/>
<stop offset="1" stop-color="#5F8BFF"/>
</linearGradient>
<linearGradient id="paint4_linear_5_2775" x1="90.6798" y1="76.721" x2="90.6798" y2="57.9155" gradientUnits="userSpaceOnUse">
<stop stop-color="#294DA9"/>
<stop offset="0.541667" stop-color="#1847C2"/>
<stop offset="1" stop-color="#5F8BFF"/>
</linearGradient>
<linearGradient id="paint5_linear_5_2775" x1="54.5081" y1="117.553" x2="54.152" y2="67.9608" gradientUnits="userSpaceOnUse">
<stop stop-color="#1D9822"/>
<stop offset="0.88076" stop-color="#77DF5D"/>
</linearGradient>
<linearGradient id="paint6_linear_5_2775" x1="34.2327" y1="117.553" x2="33.8766" y2="67.9608" gradientUnits="userSpaceOnUse">
<stop stop-color="#1D9822"/>
<stop offset="0.88076" stop-color="#77DF5D"/>
</linearGradient>
<linearGradient id="paint7_linear_5_2775" x1="70.4061" y1="103.099" x2="70.4061" y2="84.2935" gradientUnits="userSpaceOnUse">
<stop stop-color="#294DA9"/>
<stop offset="0.541667" stop-color="#1847C2"/>
<stop offset="1" stop-color="#5F8BFF"/>
</linearGradient>
<linearGradient id="paint8_linear_5_2775" x1="78.0003" y1="144.886" x2="78.0003" y2="13.3912" gradientUnits="userSpaceOnUse">
<stop stop-color="#294DA9"/>
<stop offset="0.541667" stop-color="#1847C2"/>
<stop offset="1" stop-color="#5F8BFF"/>
</linearGradient>
<linearGradient id="paint9_linear_5_2775" x1="115.449" y1="131.991" x2="115.449" y2="97.144" gradientUnits="userSpaceOnUse">
<stop stop-color="#294DA9"/>
<stop offset="0.541667" stop-color="#1847C2"/>
<stop offset="1" stop-color="#5F8BFF"/>
</linearGradient>
</defs>
</svg>
