<svg width="156" height="156" viewBox="0 0 156 156" fill="none" xmlns="http://www.w3.org/2000/svg">
<g id="Offer 2">
<path id="Vector" d="M145.762 63.115C144.572 61.3 143.993 59.1531 144.108 56.9862L144.593 48.1567C144.74 45.4838 144.105 42.8261 142.766 40.5082C141.426 38.1903 139.441 36.3125 137.053 35.1042L129.239 31.1508C127.309 30.1793 125.744 28.6117 124.775 26.6805L120.826 18.8558C119.622 16.4661 117.748 14.4793 115.432 13.139C113.116 11.7987 110.459 11.1629 107.788 11.3096L98.9723 11.7953C96.8095 11.9074 94.6673 11.3259 92.8582 10.1353L85.5679 5.32126C83.3221 3.83592 80.689 3.04395 77.9964 3.04395C75.3038 3.04395 72.6707 3.83592 70.4249 5.32126L63.1338 10.1353C61.325 11.3247 59.1839 11.906 57.022 11.795L48.205 11.3075C45.5331 11.1603 42.8763 11.7959 40.5602 13.1363C38.2442 14.4768 36.3696 16.4639 35.1662 18.854L31.219 26.6796C30.2503 28.6108 28.6849 30.1783 26.755 31.1496L18.9404 35.1036C16.5528 36.3129 14.569 38.1912 13.2312 40.5093C11.8933 42.8273 11.2594 45.4847 11.4066 48.157L11.8923 56.9862C12.0064 59.1532 11.4264 61.3002 10.2366 63.115L5.43173 70.4168C3.94866 72.6677 3.1582 75.3041 3.1582 77.9996C3.1582 80.6951 3.94866 83.3315 5.43173 85.5824L10.2366 92.8827C11.4258 94.6978 12.0053 96.8448 11.8908 99.0118L11.4066 107.841C11.2595 110.514 11.8936 113.171 13.2316 115.49C14.5696 117.808 16.5535 119.686 18.9413 120.896L26.7547 124.848C28.6847 125.819 30.2502 127.387 31.219 129.318L35.1659 137.144C36.3703 139.534 38.2453 141.52 40.5615 142.861C42.8777 144.201 45.5345 144.837 48.2065 144.69L57.0211 144.203C59.1839 144.091 61.3259 144.673 63.1353 145.863L70.4249 150.677C72.6715 152.164 75.306 152.956 78.0001 152.956C80.6941 152.956 83.3286 152.164 85.5752 150.677L92.8664 145.863C94.6754 144.674 96.8161 144.093 98.9778 144.203L107.795 144.691C110.467 144.837 113.123 144.201 115.439 142.861C117.755 141.521 119.629 139.534 120.833 137.145L124.781 129.319C125.749 127.388 127.314 125.82 129.244 124.849L137.059 120.896C139.447 119.686 141.43 117.808 142.768 115.49C144.106 113.172 144.74 110.514 144.593 107.842L144.107 99.0121C143.993 96.8451 144.572 94.6981 145.761 92.883L150.568 85.5824C152.051 83.3315 152.841 80.6951 152.841 77.9996C152.841 75.3041 152.051 72.6677 150.568 70.4168L145.762 63.115ZM147.514 83.5717L142.707 90.8723C141.089 93.3424 140.301 96.2639 140.456 99.2125L140.942 108.043C141.05 110.006 140.585 111.958 139.602 113.662C138.619 115.365 137.162 116.745 135.408 117.633L127.594 121.586C124.966 122.909 122.835 125.043 121.516 127.672L117.569 135.499C116.684 137.253 115.308 138.712 113.608 139.696C111.907 140.68 109.957 141.147 107.995 141.04L99.1749 140.553C96.2298 140.4 93.3128 141.192 90.8487 142.812L83.5582 147.626C81.9091 148.718 79.9752 149.3 77.9976 149.3C76.02 149.3 74.0862 148.718 72.4371 147.626L65.1477 142.812C62.8907 141.327 60.2489 140.535 57.5473 140.532C57.3036 140.532 57.0606 140.539 56.8185 140.552L48.003 141.039C46.0412 141.147 44.0907 140.68 42.3903 139.696C40.6899 138.712 39.3134 137.253 38.4294 135.498L34.4837 127.671C33.1645 125.042 31.033 122.908 28.4055 121.586L20.5924 117.634C18.8382 116.745 17.3807 115.365 16.3979 113.662C15.415 111.958 14.9494 110.006 15.0577 108.042L15.5434 99.2122C15.6989 96.2635 14.9104 93.3421 13.2924 90.872L8.48592 83.5717C7.39596 81.9176 6.81503 79.9802 6.81503 77.9993C6.81503 76.0184 7.39596 74.0809 8.48592 72.4268L13.2924 65.125C14.9104 62.6551 15.6989 59.7337 15.5434 56.7851L15.0577 47.9553C14.9493 45.992 15.4149 44.0397 16.3976 42.3367C17.3804 40.6337 18.8377 39.2537 20.5918 38.3652L28.4061 34.4116C31.0334 33.0891 33.1646 30.9551 34.4837 28.3261L38.4312 20.4999C39.3155 18.7459 40.692 17.2877 42.3922 16.3039C44.0924 15.32 46.0425 14.8531 48.0039 14.9604L56.8221 15.4479C59.7674 15.6008 62.6846 14.8091 65.1483 13.188L72.4383 8.37393C74.0867 7.28365 76.0194 6.70233 77.9958 6.70233C79.9722 6.70233 81.9049 7.28365 83.5533 8.37393L90.8427 13.188C93.3072 14.8096 96.2254 15.6015 99.1716 15.4482L107.988 14.9604C109.95 14.8528 111.9 15.3197 113.601 16.3039C115.301 17.2882 116.677 18.747 117.561 20.5017L121.509 28.3273C122.828 30.9564 124.959 33.0904 127.586 34.4131L135.402 38.3668C137.157 39.2545 138.616 40.6341 139.599 42.337C140.583 44.0399 141.05 45.9925 140.942 47.9562L140.456 56.7854C140.301 59.734 141.089 62.6554 142.707 65.1253L147.514 72.4268C148.604 74.0811 149.184 76.0186 149.184 77.9995C149.184 79.9804 148.603 81.9178 147.512 83.5717H147.514Z" fill="url(#paint0_linear_5_2790)"/>
<path id="Vector_2" d="M77.9902 23.3799C47.9176 23.3799 23.4512 47.8807 23.4512 77.996C23.4512 108.111 47.9176 132.612 77.9902 132.612C108.063 132.612 132.529 108.112 132.529 77.996C132.529 47.8804 108.063 23.3799 77.9902 23.3799ZM77.9902 128.956C49.9334 128.956 27.1074 106.096 27.1074 77.996C27.1074 49.8965 49.9334 27.0361 77.9902 27.0361C106.047 27.0361 128.873 49.8968 128.873 77.996C128.873 106.095 106.047 128.956 77.9902 128.956Z" fill="url(#paint1_linear_5_2790)"/>
<path id="Vector_3" d="M77.9902 34.2119C53.8815 34.2119 34.2676 53.8533 34.2676 77.9955C34.2676 102.138 53.8815 121.779 77.9902 121.779C102.099 121.779 121.713 102.138 121.713 77.9955C121.713 53.853 102.1 34.2119 77.9902 34.2119ZM77.9902 118.123C55.8973 118.123 37.9238 100.122 37.9238 77.9955C37.9238 55.8694 55.8973 37.8682 77.9902 37.8682C100.083 37.8682 118.057 55.8694 118.057 77.9955C118.057 100.122 100.083 118.123 77.9902 118.123V118.123Z" fill="url(#paint2_linear_5_2790)"/>
<path id="Vector_4" d="M73.4485 73.5822C74.7948 72.236 75.6326 70.4647 75.8193 68.57C76.006 66.6753 75.53 64.7745 74.4724 63.1914C73.4147 61.6083 71.8409 60.441 70.019 59.8882C68.1972 59.3354 66.24 59.4314 64.481 60.1599C62.722 60.8884 61.27 62.2042 60.3724 63.8832C59.4748 65.5622 59.1871 67.5005 59.5584 69.3678C59.9297 71.2351 60.9369 72.916 62.4085 74.1239C63.8802 75.3318 65.7251 75.9921 67.6289 75.9923C69.8115 75.9916 71.9047 75.1248 73.4488 73.5822H73.4485ZM64.3971 64.5306C65.0366 63.8911 65.8513 63.4556 66.7383 63.2792C67.6253 63.1027 68.5446 63.1933 69.3801 63.5394C70.2156 63.8854 70.9298 64.4715 71.4322 65.2234C71.9346 65.9754 72.2028 66.8594 72.2028 67.7638C72.2028 68.6681 71.9346 69.5521 71.4322 70.3041C70.9298 71.056 70.2156 71.6421 69.3801 71.9882C68.5446 72.3342 67.6253 72.4248 66.7383 72.2483C65.8513 72.0719 65.0366 71.6364 64.3971 70.997C63.9689 70.5744 63.6288 70.071 63.3967 69.516C63.1647 68.961 63.0451 68.3654 63.0451 67.7638C63.0451 67.1622 63.1647 66.5665 63.3967 66.0115C63.6288 65.4565 63.9689 64.9531 64.3971 64.5306Z" fill="url(#paint3_linear_5_2790)"/>
<path id="Vector_5" d="M88.3902 80.2945C86.4864 80.2947 84.6416 80.955 83.1701 82.1629C81.6985 83.3708 80.6913 85.0515 80.3201 86.9188C79.9489 88.786 80.2365 90.7242 81.1341 92.4031C82.0317 94.0821 83.4836 95.3978 85.2425 96.1263C87.0014 96.8547 88.9585 96.9507 90.7803 96.398C92.6021 95.8452 94.1759 94.6779 95.2335 93.0949C96.2911 91.512 96.7671 89.6112 96.5805 87.7166C96.3938 85.822 95.556 84.0507 94.2098 82.7045C93.4473 81.938 92.5403 81.3303 91.5414 80.9166C90.5425 80.5029 89.4714 80.2914 88.3902 80.2945ZM91.6233 91.7562C90.8752 92.5033 89.8912 92.968 88.839 93.0711C87.7868 93.1741 86.7313 92.9091 85.8525 92.3213C84.9738 91.7335 84.3259 90.8591 84.0195 89.8472C83.713 88.8354 83.7669 87.7485 84.1718 86.7719C84.5768 85.7952 85.3079 84.9892 86.2405 84.4911C87.1731 83.993 88.2495 83.8337 89.2864 84.0402C90.3233 84.2468 91.2565 84.8064 91.9271 85.6238C92.5976 86.4413 92.9641 87.4659 92.9639 88.5232C92.9652 89.124 92.8473 89.7192 92.6169 90.2741C92.3866 90.8291 92.0484 91.3328 91.6221 91.7562H91.6233Z" fill="url(#paint4_linear_5_2790)"/>
<path id="Vector_6" d="M91.9205 64.0582C91.5777 63.7155 91.1128 63.5229 90.628 63.5229C90.1433 63.5229 89.6783 63.7155 89.3355 64.0582L63.9054 89.4883C63.7334 89.6576 63.5966 89.8592 63.5028 90.0816C63.4091 90.304 63.3604 90.5427 63.3594 90.7841C63.3584 91.0254 63.4052 91.2645 63.4971 91.4876C63.589 91.7108 63.7242 91.9135 63.8948 92.0842C64.0655 92.2548 64.2682 92.39 64.4913 92.4819C64.7145 92.5738 64.9536 92.6206 65.1949 92.6196C65.4363 92.6186 65.675 92.5699 65.8974 92.4762C66.1198 92.3825 66.3214 92.2456 66.4907 92.0736L91.9205 66.6435C92.2633 66.3006 92.4559 65.8357 92.4559 65.3508C92.4559 64.866 92.2633 64.401 91.9205 64.0582Z" fill="url(#paint5_linear_5_2790)"/>
<path id="Vector_7" d="M71.0862 45.8908C71.209 45.8908 71.3315 45.8785 71.4518 45.854C72.0003 45.7424 72.563 45.644 73.1191 45.5611C73.3576 45.527 73.587 45.4461 73.7941 45.323C74.0012 45.1999 74.182 45.037 74.3259 44.8438C74.4699 44.6506 74.5743 44.4309 74.633 44.1972C74.6918 43.9636 74.7037 43.7206 74.6683 43.4823C74.6328 43.244 74.5505 43.015 74.4263 42.8086C74.302 42.6022 74.1382 42.4224 73.9442 42.2795C73.7502 42.1366 73.5298 42.0335 73.2958 41.976C73.0619 41.9186 72.8188 41.908 72.5807 41.9448C71.9622 42.0362 71.3379 42.1465 70.7252 42.2705C70.2805 42.36 69.8851 42.6116 69.6156 42.9764C69.3461 43.3412 69.2218 43.7931 69.2669 44.2444C69.312 44.6957 69.5232 45.1141 69.8595 45.4184C70.1959 45.7227 70.6333 45.891 71.0868 45.8908H71.0862Z" fill="#E73C34" fill-opacity="0.56"/>
<path id="Vector_8" d="M66.1345 45.4073C65.9447 44.9612 65.5854 44.6087 65.1357 44.4275C64.686 44.2462 64.1828 44.251 63.7366 44.4408C58.6183 46.635 54.0664 49.9654 50.4261 54.1796C46.7857 58.3939 44.1523 63.3814 42.7254 68.7644C42.6647 68.9966 42.6504 69.2386 42.6832 69.4764C42.716 69.7143 42.7954 69.9433 42.9167 70.1505C43.0381 70.3576 43.199 70.5389 43.3904 70.6838C43.5818 70.8288 43.7999 70.9346 44.0322 70.9953C44.2645 71.0559 44.5064 71.0703 44.7443 71.0374C44.9821 71.0046 45.2111 70.9253 45.4183 70.8039C45.6254 70.6826 45.8067 70.5216 45.9516 70.3302C46.0966 70.1388 46.2024 69.9208 46.2631 69.6885C47.5471 64.8454 49.9167 60.3582 53.1922 56.5668C56.4677 52.7754 60.5632 49.7793 65.1683 47.8055C65.3893 47.7115 65.5895 47.5749 65.7576 47.4035C65.9257 47.2321 66.0584 47.0292 66.1481 46.8065C66.2379 46.5838 66.2828 46.3456 66.2805 46.1056C66.2782 45.8655 66.2285 45.6282 66.1345 45.4073Z" fill="#E73C34" fill-opacity="0.56"/>
</g>
<defs>
<linearGradient id="paint0_linear_5_2790" x1="78" y1="149.507" x2="78" y2="8.98054" gradientUnits="userSpaceOnUse">
<stop stop-color="#294DA9"/>
<stop offset="0.541667" stop-color="#1847C2"/>
<stop offset="1" stop-color="#5F8BFF"/>
</linearGradient>
<linearGradient id="paint1_linear_5_2790" x1="77.9904" y1="130.098" x2="77.9904" y2="27.7055" gradientUnits="userSpaceOnUse">
<stop stop-color="#294DA9"/>
<stop offset="0.541667" stop-color="#1847C2"/>
<stop offset="1" stop-color="#5F8BFF"/>
</linearGradient>
<linearGradient id="paint2_linear_5_2790" x1="77.9904" y1="119.764" x2="77.9904" y2="37.6796" gradientUnits="userSpaceOnUse">
<stop stop-color="#294DA9"/>
<stop offset="0.541667" stop-color="#1847C2"/>
<stop offset="1" stop-color="#5F8BFF"/>
</linearGradient>
<linearGradient id="paint3_linear_5_2790" x1="72.306" y1="87.471" x2="72.0816" y2="46.7854" gradientUnits="userSpaceOnUse">
<stop stop-color="#1D9822"/>
<stop offset="0.88076" stop-color="#77DF5D"/>
</linearGradient>
<linearGradient id="paint4_linear_5_2790" x1="93.0672" y1="108.231" x2="92.8428" y2="67.5466" gradientUnits="userSpaceOnUse">
<stop stop-color="#1D9822"/>
<stop offset="0.88076" stop-color="#77DF5D"/>
</linearGradient>
<linearGradient id="paint5_linear_5_2790" x1="86.1746" y1="112.912" x2="85.7779" y2="40.9856" gradientUnits="userSpaceOnUse">
<stop stop-color="#1D9822"/>
<stop offset="0.88076" stop-color="#77DF5D"/>
</linearGradient>
</defs>
</svg>
