<svg width="156" height="156" viewBox="0 0 156 156" fill="none" xmlns="http://www.w3.org/2000/svg">
<g id="Online records 1" clip-path="url(#clip0_5_2801)">
<path id="Vector" d="M129.69 25.1297H117.162V11.981C117.144 5.36327 111.776 0.00509937 105.158 0H66.1609C66.0946 0 66.0296 0.00382455 65.9646 0.0101987C65.9174 0.0152981 65.869 0.0229472 65.8218 0.0318711C65.8065 0.0344208 65.7899 0.0356956 65.7746 0.0382455C65.7198 0.049719 65.665 0.063742 65.6114 0.0790404L65.591 0.0854146C65.5362 0.101987 65.4827 0.12111 65.4279 0.142782C65.4228 0.145332 65.4164 0.146607 65.41 0.149157C65.3603 0.170829 65.3106 0.195051 65.2621 0.219273L65.2379 0.232022C65.1907 0.256243 65.1474 0.283015 65.1041 0.311062C65.0939 0.318711 65.0824 0.32381 65.0735 0.330184C65.0276 0.360781 64.9855 0.392652 64.9421 0.428347C64.9345 0.434721 64.9268 0.439821 64.9192 0.446195C64.8682 0.48699 64.821 0.572405 64.7739 0.618299L40.302 25.1297H26.3093C22.5243 25.1195 18.8923 26.6213 16.2202 29.301C13.5481 31.9807 12.0553 35.6166 12.0744 39.4003V115.075C12.0744 122.989 18.3951 129.565 26.3093 129.565H76.0409V152.084H52.3977C51.3166 152.084 50.4395 152.961 50.4395 154.042C50.4395 155.123 51.3166 156 52.3977 156H105.083C106.164 156 107.041 155.123 107.041 154.042C107.041 152.961 106.164 152.084 105.083 152.084H79.9573V129.565H129.69C137.603 129.565 143.924 122.991 143.924 115.075V39.4003C143.943 35.6166 142.451 31.9807 139.778 29.301C137.106 26.6213 133.474 25.1195 129.69 25.1297ZM113.246 11.981V102.151H42.7522V29.3724H56.1381C62.7915 29.3188 68.1675 23.9314 68.2083 17.278V3.91632H105.158C109.615 3.92014 113.231 7.52412 113.246 11.981ZM45.5454 25.4561L64.292 6.68528V17.278C64.2537 21.7692 60.6294 25.4051 56.1381 25.4561H45.5454ZM26.3093 29.046H38.8359V102.151H15.9907V39.4003C15.9703 36.6543 17.0501 34.0141 18.9879 32.0687C20.9269 30.1245 23.5633 29.0358 26.3093 29.046ZM129.69 125.649H26.3093C20.5547 125.649 15.9907 120.83 15.9907 115.075V106.067H140.007V115.075C140.007 120.83 135.444 125.649 129.69 125.649ZM140.007 102.151H117.162V29.046H129.69C132.436 29.0358 135.073 30.1245 137.01 32.0687C138.949 34.0141 140.028 36.6543 140.007 39.4003V102.151Z" fill="url(#paint0_linear_5_2801)"/>
<path id="Vector_2" d="M87.7785 48.3011H107.373C108.454 48.3011 109.331 47.424 109.331 46.3429C109.331 45.2619 108.454 44.3848 107.373 44.3848H87.7785C86.6961 44.3848 85.8203 45.2619 85.8203 46.3429C85.8203 47.424 86.6961 48.3011 87.7785 48.3011Z" fill="#E73C34" fill-opacity="0.56"/>
<path id="Vector_3" d="M71.4738 48.3011H80.0407C81.1218 48.3011 81.9989 47.424 81.9989 46.3429C81.9989 45.2619 81.1218 44.3848 80.0407 44.3848H71.4738C70.3927 44.3848 69.5156 45.2619 69.5156 46.3429C69.5156 47.424 70.3927 48.3011 71.4738 48.3011Z" fill="#E73C34" fill-opacity="0.56"/>
<path id="Vector_4" d="M107.372 58.4185H99.1007C98.0197 58.4185 97.1426 59.2955 97.1426 60.3766C97.1426 61.4577 98.0197 62.3348 99.1007 62.3348H107.372C108.453 62.3348 109.33 61.4577 109.33 60.3766C109.33 59.2955 108.453 58.4185 107.372 58.4185Z" fill="#E73C34" fill-opacity="0.56"/>
<path id="Vector_5" d="M91.1911 62.3348C92.2722 62.3348 93.1493 61.4577 93.1493 60.3766C93.1493 59.2955 92.2722 58.4185 91.1911 58.4185H76.714C75.633 58.4185 74.7559 59.2955 74.7559 60.3766C74.7559 61.4577 75.633 62.3348 76.714 62.3348H91.1911Z" fill="#ED8E89"/>
<path id="Vector_6" d="M64.2929 60.3766C64.2929 61.4577 65.17 62.3348 66.2511 62.3348H68.9512C70.0323 62.3348 70.9093 61.4577 70.9093 60.3766C70.9093 59.2955 70.0323 58.4185 68.9512 58.4185H66.2511C65.17 58.4185 64.2929 59.2955 64.2929 60.3766Z" fill="#E73C34" fill-opacity="0.56"/>
<path id="Vector_7" d="M47.3222 74.7365C47.3222 75.8175 48.1993 76.6946 49.2804 76.6946H78C79.0811 76.6946 79.9582 75.8175 79.9582 74.7365C79.9582 73.6554 79.0811 72.7783 78 72.7783H49.2804C48.1993 72.7783 47.3222 73.6554 47.3222 74.7365Z" fill="#E73C34" fill-opacity="0.56"/>
<path id="Vector_8" d="M97.5007 72.7783H85.507C84.4259 72.7783 83.5488 73.6554 83.5488 74.7365C83.5488 75.8175 84.4259 76.6946 85.507 76.6946H97.5007C98.5818 76.6946 99.4589 75.8175 99.4589 74.7365C99.4589 73.6554 98.5818 72.7783 97.5007 72.7783Z" fill="#E73C34" fill-opacity="0.56"/>
<path id="Vector_9" d="M107.372 72.7783H105.087C104.006 72.7783 103.129 73.6554 103.129 74.7365C103.129 75.8175 104.006 76.6946 105.087 76.6946H107.372C108.453 76.6946 109.33 75.8175 109.33 74.7365C109.33 73.6554 108.453 72.7783 107.372 72.7783Z" fill="#E73C34" fill-opacity="0.56"/>
<path id="Vector_10" d="M58.4184 86.8118H49.2804C48.1993 86.8118 47.3222 87.6889 47.3222 88.7699C47.3222 89.851 48.1993 90.7281 49.2804 90.7281H58.4184C59.4995 90.7281 60.3766 89.851 60.3766 88.7699C60.3766 87.6889 59.4995 86.8118 58.4184 86.8118Z" fill="#E73C34" fill-opacity="0.56"/>
<path id="Vector_11" d="M94.2364 86.8118H65.8431C64.762 86.8118 63.8849 87.6889 63.8849 88.7699C63.8849 89.851 64.762 90.7281 65.8431 90.7281H94.2364C95.3175 90.7281 96.1946 89.851 96.1946 88.7699C96.1946 87.6889 95.3175 86.8118 94.2364 86.8118Z" fill="#E73C34" fill-opacity="0.56"/>
<path id="Vector_12" d="M107.372 86.8115H101.823C100.742 86.8115 99.8652 87.6886 99.8652 88.7697C99.8652 89.8507 100.742 90.7278 101.823 90.7278H107.372C108.453 90.7278 109.33 89.8507 109.33 88.7697C109.33 87.6886 108.453 86.8115 107.372 86.8115Z" fill="#E73C34" fill-opacity="0.56"/>
<path id="Vector_13" d="M58.6996 62.443C59.499 62.443 60.2167 61.9586 60.5163 61.2192C60.8146 60.4785 60.6348 59.6307 60.0612 59.0762L53.4868 52.73C56.8779 52.3985 59.7029 49.9891 60.5647 46.6923L62.9002 46.6694H62.9219C63.4331 46.6796 63.9265 46.4871 64.2936 46.1314C64.6621 45.777 64.8724 45.2913 64.8801 44.7801C64.8852 44.2638 64.6825 43.7666 64.3191 43.3994C63.9558 43.0323 63.4599 42.8245 62.9436 42.8245L60.6068 42.8117C60.4219 42.0621 60.1236 41.3457 59.7208 40.6866L62.9665 40.7949H62.9869C64.0731 40.7631 64.9387 39.877 64.9451 38.7909C64.9591 37.7022 64.096 36.8047 63.0086 36.7779L52.8507 36.6326L48.7788 36.5522H48.7584C47.6773 36.5599 46.8028 37.4344 46.7977 38.5155C46.7926 39.5953 47.6569 40.48 48.7367 40.4979L52.8086 40.5463C54.3409 40.5769 55.7356 41.4438 56.4393 42.8054L48.7138 42.7531H48.6921C47.6225 42.748 46.7505 43.6098 46.7454 44.6794C46.7391 45.749 47.6021 46.621 48.6717 46.6273L56.4011 46.7025C56.2048 47.0582 55.9562 47.3833 55.6655 47.6663C54.884 48.4414 53.8208 48.8672 52.7206 48.8468L48.6488 48.8022C47.8469 48.7946 47.1215 49.2752 46.8168 50.0171C46.5121 50.7591 46.6906 51.612 47.2668 52.1691L57.3407 61.8936C57.7053 62.2467 58.1922 62.4443 58.6996 62.443Z" fill="url(#paint1_linear_5_2801)"/>
</g>
<defs>
<linearGradient id="paint0_linear_5_2801" x1="77.9993" y1="152.41" x2="77.9993" y2="6.17766" gradientUnits="userSpaceOnUse">
<stop stop-color="#294DA9"/>
<stop offset="0.541667" stop-color="#1847C2"/>
<stop offset="1" stop-color="#5F8BFF"/>
</linearGradient>
<linearGradient id="paint1_linear_5_2801" x1="61" y1="80.5" x2="60.5" y2="16.5" gradientUnits="userSpaceOnUse">
<stop stop-color="#1D9822"/>
<stop offset="0.88076" stop-color="#77DF5D"/>
</linearGradient>
<clipPath id="clip0_5_2801">
<rect width="156" height="156" fill="white"/>
</clipPath>
</defs>
</svg>
