<svg width="19" height="20" viewBox="0 0 19 20" fill="none" xmlns="http://www.w3.org/2000/svg">
<path fill-rule="evenodd" clip-rule="evenodd" d="M14 8.5C14 11.8137 11.3137 14.5 8 14.5C4.68629 14.5 2 11.8137 2 8.5C2 5.18629 4.68629 2.5 8 2.5C11.3137 2.5 14 5.18629 14 8.5ZM12.9056 14.8199C11.551 15.8729 9.84871 16.5 8 16.5C3.58172 16.5 0 12.9183 0 8.5C0 4.08172 3.58172 0.5 8 0.5C12.4183 0.5 16 4.08172 16 8.5C16 10.3487 15.3729 12.051 14.3199 13.4056L18.7071 17.7929C19.0976 18.1834 19.0976 18.8166 18.7071 19.2071C18.3166 19.5976 17.6834 19.5976 17.2929 19.2071L12.9056 14.8199Z" fill="#1B1B1B"/>
</svg>
