<?xml version="1.0" encoding="utf-8"?>
<!-- Generator: Adobe Illustrator 25.4.0, SVG Export Plug-In . SVG Version: 6.00 Build 0)  -->
<svg version="1.1" id="Layer_1" xmlns="http://www.w3.org/2000/svg" xmlns:xlink="http://www.w3.org/1999/xlink" x="0px" y="0px"
	 viewBox="0 0 1000 1000" style="enable-background:new 0 0 1000 1000;" xml:space="preserve">
<style type="text/css">
	.st0{clip-path:url(#SVGID_00000152963563651572953190000004543208010012527762_);}
	.st1{fill:#21325D;}
	.st2{fill:#F03540;}
</style>
<g>
	<defs>
		<path id="SVGID_1_" d="M109.4,384.16h95.42c13.17,0,23.86,10.68,23.86,23.86v95.42c0,13.17-10.68,23.86-23.86,23.86H109.4
			c-13.17,0-23.86-10.68-23.86-23.86v-95.42C85.54,394.84,96.22,384.16,109.4,384.16z"/>
	</defs>
	<clipPath id="SVGID_00000142149607511378014000000004424061396699840419_">
		<use xlink:href="#SVGID_1_"  style="overflow:visible;"/>
	</clipPath>
	<g style="clip-path:url(#SVGID_00000142149607511378014000000004424061396699840419_);">
		<path class="st1" d="M109.4,384.16h95.42c13.17,0,23.86,10.68,23.86,23.86v95.42c0,13.17-10.68,23.86-23.86,23.86H109.4
			c-13.17,0-23.86-10.68-23.86-23.86v-95.42C85.54,394.84,96.22,384.16,109.4,384.16z"/>
		<path class="st2" d="M228.68,467.34l-0.01,37c0,6.99,0.68,11.04-5.54,17.34c-6.11,6.18-12.98,5.53-19.02,5.62
			c3.24-0.8,5.89-3.12,6.67-6.24c0.02-0.1,0.05-0.2,0.07-0.3c0-0.02,0.01-0.04,0.02-0.06c0.04-0.16,0.08-0.32,0.11-0.49
			c0.05-0.22,0.1-0.43,0.14-0.65c0.05-0.23,0.09-0.46,0.13-0.69c0.04-0.22,0.08-0.44,0.12-0.66c0.03-0.23,0.06-0.47,0.1-0.7
			c0.03-0.23,0.06-0.45,0.09-0.69c0.02-0.23,0.05-0.47,0.06-0.72c0.02-0.23,0.05-0.46,0.06-0.7c0.02-0.25,0.02-0.49,0.03-0.74
			c0.01-0.24,0.02-0.48,0.02-0.72c0-0.25,0-0.5,0-0.75c0-0.25,0-0.49,0-0.74c-0.01-0.25-0.02-0.51-0.03-0.76
			c-0.01-0.25-0.02-0.5-0.05-0.76c-0.02-0.26-0.05-0.51-0.08-0.78c-0.02-0.25-0.05-0.51-0.07-0.77c-0.03-0.26-0.08-0.52-0.11-0.79
			c-0.03-0.26-0.08-0.52-0.12-0.78c-0.05-0.27-0.1-0.54-0.15-0.81c-0.05-0.26-0.1-0.53-0.15-0.79c-0.06-0.27-0.13-0.55-0.2-0.83
			c-0.06-0.27-0.13-0.54-0.2-0.8c-0.08-0.28-0.16-0.56-0.24-0.84c-0.08-0.27-0.15-0.54-0.24-0.82c-0.09-0.28-0.19-0.56-0.28-0.85
			c-0.1-0.28-0.18-0.56-0.28-0.84c-0.1-0.29-0.22-0.59-0.34-0.88c-0.11-0.28-0.21-0.56-0.32-0.84c-0.12-0.3-0.25-0.6-0.38-0.89
			c-0.13-0.29-0.24-0.58-0.38-0.86c-0.13-0.3-0.28-0.6-0.43-0.9c-0.14-0.29-0.28-0.59-0.43-0.88c-0.16-0.3-0.32-0.61-0.48-0.92
			c-0.16-0.3-0.31-0.59-0.47-0.89c-0.17-0.31-0.36-0.63-0.54-0.93c-0.17-0.3-0.34-0.6-0.52-0.9c-0.19-0.31-0.4-0.63-0.6-0.95
			c-0.19-0.3-0.38-0.61-0.58-0.91c-0.21-0.32-0.44-0.65-0.66-0.98c-0.2-0.31-0.4-0.61-0.62-0.92c-0.23-0.33-0.48-0.66-0.72-0.99
			c-0.22-0.31-0.44-0.61-0.68-0.93c-0.25-0.34-0.52-0.68-0.78-1.01c-0.24-0.31-0.48-0.62-0.73-0.93c-0.28-0.35-0.58-0.69-0.86-1.04
			c-0.26-0.31-0.51-0.62-0.78-0.93c-0.3-0.36-0.62-0.71-0.94-1.07c-0.27-0.31-0.54-0.62-0.83-0.93c-0.33-0.36-0.68-0.73-1.02-1.09
			c-0.29-0.31-0.58-0.63-0.88-0.94c-0.35-0.36-0.72-0.73-1.09-1.1c-0.31-0.32-0.61-0.63-0.94-0.96c-0.38-0.37-0.78-0.75-1.17-1.12
			c-0.33-0.32-0.65-0.63-0.99-0.96c-0.41-0.39-0.85-0.78-1.28-1.17c-0.34-0.31-0.68-0.63-1.02-0.94c-0.46-0.41-0.94-0.82-1.41-1.23
			c-0.35-0.3-0.68-0.6-1.03-0.91c-0.5-0.42-1.01-0.84-1.52-1.26c-0.36-0.3-0.7-0.59-1.07-0.89c-0.61-0.5-1.24-0.99-1.88-1.49
			c-0.29-0.23-0.56-0.45-0.85-0.68c-0.93-0.73-1.89-1.46-2.87-2.2c-1.97-1.48-4.94-0.83-5.98,1.31l-13.78,28.6l-9.2-8.27l3.25-40.18
			c0,0-22.99-19.44-17.66-24.34c5.33-4.91,28.73,10.46,28.73,10.46l43.06-11.32l10.64,6.85l-28.81,19.19
			c-1.17,0.78-0.88,2.45,0.5,2.86c15.15,4.51,28.4,10.78,39.82,18.06c0.21,0.13,0.44,0.24,0.66,0.32H228.68z"/>
	</g>
</g>
<path class="st1" d="M323.33,416.39c0,0.51-0.22,0.76-0.67,0.76c-0.7,0-1.34-1.24-1.91-3.72c-1.15-4.9-2.74-8.24-4.77-10.02
	c-2.04-1.78-5.28-2.67-9.73-2.67c-1.72,0-3.21,0.06-4.48,0.19l0.1,58.02c0.06,1.59,0.51,2.61,1.34,3.05
	c0.83,0.45,3.05,0.83,6.68,1.15c0.7,0.06,1.05,0.35,1.05,0.86c0,0.64-0.51,0.95-1.53,0.95c-0.19,0-0.67-0.03-1.43-0.1
	c-0.95-0.06-1.75-0.1-2.39-0.1l-9.83-0.29l-16.22,0.29c-0.89,0-1.34-0.25-1.34-0.76c0-0.38,0.13-0.6,0.38-0.67
	c0.25-0.06,1.3-0.13,3.15-0.19c3.5-0.13,5.38-0.95,5.63-2.48c0.13-0.83,0.19-7.28,0.19-19.37v-40.36c-0.7-0.06-1.53-0.1-2.48-0.1
	c-5.09,0-8.81,0.95-11.16,2.86c-2.29,1.84-3.79,5.15-4.48,9.92c-0.45,2.8-1.02,4.2-1.72,4.2c-0.57,0-0.86-0.38-0.86-1.15
	c0-0.51,0.13-2.26,0.38-5.25c0.51-6.23,0.83-10.5,0.95-12.79h1.43l6.97-0.1c0.19,0,2.39,0.06,6.58,0.19
	c4.26,0.13,9.67,0.19,16.22,0.19c3.63,0,6.87-0.03,9.73-0.1c2.86-0.06,5.47-0.1,7.82-0.1c2.1,0,3.69-0.06,4.77-0.19
	c0.19,4.13,0.67,9.42,1.43,15.84C323.27,415.47,323.33,416.14,323.33,416.39z M378.38,464.39c0,0.38-0.29,0.57-0.86,0.57
	c0.06,0-0.57,0-1.91,0c-1.34-0.06-2.45-0.1-3.34-0.1h-2.39c-5.47,0-8.84-0.06-10.11-0.19h-1.53l-2.29,0.1
	c-0.83,0.06-1.24-0.16-1.24-0.67c0-0.38,0.16-0.57,0.48-0.57l2.19,0.1c1.4,0.06,2.19-0.32,2.39-1.15c0.13-0.51,0.19-3.69,0.19-9.54
	v-14.22c0-5.92-0.29-9.42-0.86-10.5c-0.83-1.65-2.42-2.48-4.77-2.48c-2.48,0-4.39,1.11-5.73,3.34c-0.64,1.08-0.95,3.4-0.95,6.97
	v14.98c0,4.64,0.03,7.19,0.1,7.63v1.15l-0.1,2.29c-0.06,0.95,1.27,1.43,4.01,1.43c0.57,0,0.86,0.19,0.86,0.57
	c0,0.45-0.41,0.67-1.24,0.67c0,0-0.25,0-0.76,0c-0.51-0.06-1.27-0.1-2.29-0.1h-4.2l-5.34,0.1l-5.63,0.19h-2.86
	c-0.95,0-1.43-0.19-1.43-0.57c0-0.19,0.06-0.32,0.19-0.38c0.13-0.06,0.41-0.1,0.86-0.1c2.42,0,3.85-0.1,4.29-0.29
	c0.45-0.19,0.73-0.92,0.86-2.19c0.06-0.76,0.1-4.58,0.1-11.45v-35.02c0-6.87-0.16-10.81-0.48-11.83c-0.25-1.08-1.59-1.62-4.01-1.62
	c-1.84,0-2.77-0.19-2.77-0.57c0-0.38,1.08-0.64,3.24-0.76c4.9-0.32,9.51-1.15,13.84-2.48c0.83-0.25,1.43-0.38,1.81-0.38
	c0.51,0,0.76,1.78,0.76,5.34v1.91c0,1.27,0,2.96,0,5.06c-0.06,2.04-0.1,3.44-0.1,4.2v15.17c1.84-2.61,3.63-4.39,5.34-5.34
	c1.78-0.95,4.17-1.43,7.16-1.43c6.3,0,10.24,2.54,11.83,7.63c0.57,1.65,0.86,4.33,0.86,8.02v22.23c0,1.65,0.25,2.67,0.76,3.05
	c0.57,0.38,1.94,0.57,4.1,0.57C378.07,463.72,378.38,463.94,378.38,464.39z M424.2,453.03c0,1.4-0.83,3.24-2.48,5.53
	c-3.56,4.9-8.21,7.35-13.93,7.35c-6.42,0-11.7-2.04-15.84-6.11c-4.13-4.07-6.2-9.29-6.2-15.65c0-6.23,2-11.42,6.01-15.55
	c4.01-4.2,9-6.3,14.98-6.3c4.07,0,7.54,0.89,10.4,2.67c3.18,1.97,5.25,4.8,6.2,8.49c0.25,1.15,0.45,2.51,0.57,4.1
	c-1.46,0.13-7.35,0.22-17.65,0.29c-1.59,0-3.59,0.06-6.01,0.19c-0.19,2.29-0.29,4.23-0.29,5.82c0,7.44,1.56,12.72,4.68,15.84
	c1.85,1.84,4.1,2.77,6.77,2.77c2.23,0,4.36-0.76,6.39-2.29c2.1-1.53,3.69-3.5,4.77-5.92c0.51-1.21,0.92-1.81,1.24-1.81
	C424.07,452.46,424.2,452.65,424.2,453.03z M412.17,436.43c0.06-4.9-0.29-8.3-1.05-10.21c-0.76-1.91-2.1-2.86-4.01-2.86
	c-3.88,0-6.11,4.36-6.68,13.07c1.34-0.06,4.14-0.1,8.4-0.1C410.11,436.33,411.22,436.37,412.17,436.43z M494.41,445.88
	c0,5.79-2.07,10.59-6.2,14.41c-4.07,3.75-9.29,5.63-15.65,5.63c-3.88,0-9.22-1.3-16.03-3.91c-0.51-0.19-0.95-0.29-1.34-0.29
	c-1.08,0-1.91,1.15-2.48,3.44c-0.19,0.7-0.45,1.05-0.76,1.05c-0.51,0-0.76-0.45-0.76-1.34c0-0.83,0.16-2.29,0.48-4.39
	c0.25-1.72,0.38-3.72,0.38-6.01c0-1.84-0.03-3.31-0.1-4.39c-0.13-2.16-0.19-3.44-0.19-3.82c0-1.02,0.32-1.53,0.95-1.53
	c0.64,0,1.21,1.37,1.72,4.1c0.89,4.71,2.89,8.37,6.01,10.97c3.37,2.8,7,4.2,10.88,4.2c3.44,0,6.33-1.08,8.68-3.24
	c2.35-2.16,3.53-4.8,3.53-7.92c0-2.67-0.76-4.8-2.29-6.39c-1.15-1.15-4.83-3.4-11.07-6.77c-6.93-3.69-11.64-7.38-14.12-11.07
	c-2.29-3.37-3.44-7.38-3.44-12.02c0-5.47,1.94-9.99,5.82-13.55c3.88-3.63,8.78-5.44,14.69-5.44c3.18,0,6.58,0.76,10.21,2.29
	c1.21,0.51,2.07,0.76,2.58,0.76c0.95,0,1.59-0.83,1.91-2.48c0.13-0.57,0.41-0.86,0.86-0.86c0.64,0,0.95,0.41,0.95,1.24
	c0,0.32-0.06,1.21-0.19,2.67c-0.13,1.46-0.19,2.67-0.19,3.63c0,3.31,0.13,6.11,0.38,8.4c0.06,0.19,0.1,0.45,0.1,0.76
	c0,0.57-0.25,0.86-0.76,0.86c-0.57,0-1.15-1.02-1.72-3.05c-0.57-2.04-1.59-4.04-3.05-6.01c-1.4-2.04-2.83-3.5-4.29-4.39
	c-1.91-1.15-4.14-1.72-6.68-1.72c-3.56,0-6.39,0.86-8.49,2.58c-2.1,1.72-3.15,4.07-3.15,7.06c0,2.61,0.99,4.93,2.96,6.97
	c1.97,1.97,5.76,4.52,11.36,7.63c6.87,3.82,11.42,6.87,13.65,9.16C492.79,436.46,494.41,440.72,494.41,445.88z M554.53,464.1
	c0,0.45-1.18,0.67-3.53,0.67h-1.62c-1.21,0-2.86-0.03-4.96-0.1c-2.04-0.06-4.01-0.1-5.92-0.1c-2.35,0-4.14,0.03-5.34,0.1
	c-1.21,0.06-2.07,0.1-2.58,0.1c-0.89,0-1.34-0.22-1.34-0.67s0.86-0.7,2.58-0.76c1.08-0.06,1.62-0.41,1.62-1.05s-1.34-3.12-4.01-7.44
	c-0.76-1.15-1.88-2.93-3.34-5.34c-1.02-1.78-2.48-4.1-4.39-6.97v14.12c0,3.37,0.1,5.34,0.29,5.92c0.25,0.57,0.99,0.86,2.19,0.86
	c0.38,0,0.7-0.03,0.95-0.1h0.76c0.64,0,0.95,0.25,0.95,0.76c0,0.51-0.35,0.76-1.05,0.76h-0.38l-2.48-0.1h-3.15l-5.92-0.1h-9.26
	c-0.32,0.06-0.67,0.1-1.05,0.1c-0.7,0-1.05-0.22-1.05-0.67s0.83-0.7,2.48-0.76c2.1-0.06,3.28-0.25,3.53-0.57
	c0.32-0.32,0.48-1.91,0.48-4.77l-0.1-50.29c0-2.48-0.29-4.01-0.86-4.58c-0.51-0.57-1.94-0.83-4.29-0.76c-1.21,0-1.81-0.22-1.81-0.67
	c0-0.38,0.13-0.6,0.38-0.67c0.25-0.06,1.18-0.13,2.77-0.19c6.42-0.25,10.94-1.08,13.55-2.48c0.89-0.51,1.65-0.79,2.29-0.86
	c0.25,0.89,0.41,2.61,0.48,5.15l0.19,10.21c0.06,3.44,0.1,8.24,0.1,14.41v13.93c1.02-0.83,2.67-2.51,4.96-5.06
	c0.95-1.08,2.39-2.7,4.29-4.87c3.05-3.44,4.58-5.28,4.58-5.53c0-0.32-0.19-0.51-0.57-0.57c-0.38-0.06-1.65-0.13-3.82-0.19
	c-1.46,0-2.19-0.29-2.19-0.86c0-0.51,0.38-0.76,1.15-0.76l7.25,0.19l7.44-0.19c1.15,0,1.72,0.19,1.72,0.57
	c0,0.38-1.3,0.64-3.91,0.76c-1.72,0.06-3.12,0.64-4.2,1.72c-1.97,1.91-4.48,4.58-7.54,8.02l10.97,16.6
	c0.57,0.95,1.49,2.39,2.77,4.29c0.19,0.25,0.67,0.95,1.43,2.1l1.62,2.29l0.76,1.15c0.7,1.08,1.27,1.78,1.72,2.1
	c0.44,0.25,1.27,0.38,2.48,0.38C553.9,463.34,554.53,463.59,554.53,464.1z M598.29,424.02c0,0.45-0.13,0.73-0.38,0.86
	c-0.25,0.06-1.15,0.1-2.67,0.1c-1.72,0-2.74,0.1-3.05,0.29l-0.57,1.05l-1.15,3.34c-0.51,1.53-1.65,4.61-3.44,9.26
	c-0.13,0.38-1.53,4.29-4.2,11.74c-6.3,17.62-10.37,28.28-12.21,31.97c-2.29,4.58-5.22,6.87-8.78,6.87c-2.04,0-3.69-0.6-4.96-1.81
	c-1.21-1.21-1.81-2.8-1.81-4.77c0-3.12,1.72-4.68,5.15-4.68c1.15,0,2.07,0.38,2.77,1.15c0.32,0.32,0.86,1.21,1.62,2.67
	c0.45,0.64,1.05,0.95,1.81,0.95c1.27,0,2.48-1.08,3.63-3.24c1.21-2.1,2.83-6.11,4.87-12.02c-0.51-1.02-1.5-3.28-2.96-6.77
	c-1.91-4.83-4.45-11.16-7.63-18.99c-0.76-1.91-2.48-6.08-5.15-12.5c-0.89-2.16-1.65-3.44-2.29-3.82c-0.64-0.45-2.1-0.7-4.39-0.76
	c-0.76,0-1.15-0.25-1.15-0.76s0.38-0.76,1.15-0.76h1.72c0.95,0,2.39,0.03,4.29,0.1c1.91,0.06,3.37,0.1,4.39,0.1l11.64-0.1
	c0.38-0.06,0.83-0.1,1.34-0.1c0.7,0,1.05,0.22,1.05,0.67c0,0.57-0.95,0.83-2.86,0.76c-1.91-0.06-2.86,0.35-2.86,1.24
	c0,0.64,0.25,1.62,0.76,2.96c0.7,1.78,1.08,2.83,1.15,3.15c3.12,8.65,5.66,15.24,7.63,19.75c5.92-15.08,8.87-23.66,8.87-25.76
	c0-0.7-0.73-1.05-2.19-1.05c-3.05,0-4.58-0.29-4.58-0.86s0.38-0.86,1.15-0.86c0.64,0,1.27,0.03,1.91,0.1
	c1.21,0.13,2.86,0.19,4.96,0.19c0.25,0,1.18-0.03,2.77-0.1c1.65-0.13,2.74-0.19,3.24-0.19h0.57
	C598.01,423.36,598.29,423.58,598.29,424.02z M630.89,458.57c0,0.7-0.6,1.62-1.81,2.77c-3.12,2.99-7.41,4.48-12.88,4.48
	c-5.03,0-8.33-1.24-9.92-3.72c-0.64-0.95-1.02-1.84-1.15-2.67c-0.06-0.83-0.1-2.96-0.1-6.39v-4.58c0-1.21,0-2.48,0-3.82
	c-0.06-1.34-0.1-2-0.1-2v-8.59l-0.1-6.87c0-1.15-0.16-1.81-0.48-2c-0.32-0.19-1.27-0.29-2.86-0.29c-1.91,0-2.86-0.25-2.86-0.76
	c0-0.38,0.35-0.64,1.05-0.76c5.98-0.19,11.13-3.44,15.46-9.73c0.57-0.89,1.02-1.34,1.34-1.34c0.38,0,0.57,0.45,0.57,1.34
	c-0.06,5.47,0.16,8.46,0.67,8.97c0.51,0.51,2.07,0.76,4.67,0.76c2.67,0,4.55-0.13,5.63-0.38c0.13-0.06,0.25-0.1,0.38-0.1
	c0.25,0,0.38,0.19,0.38,0.57c0,0.89-0.41,1.34-1.24,1.34c-2.61,0.06-5.5,0.1-8.68,0.1c-0.25,0-0.7-0.03-1.34-0.1v2
	c0,17.05,0.22,27.04,0.67,29.96c0.57,3.69,2.35,5.53,5.34,5.53c1.34,0,3.05-0.95,5.15-2.86c1.02-0.89,1.65-1.34,1.91-1.34
	C630.79,458.09,630.89,458.25,630.89,458.57z M670.33,429.27c0,1.84-0.54,3.37-1.62,4.58c-1.09,1.15-2.48,1.72-4.2,1.72
	c-3.44,0-5.15-1.59-5.15-4.77c0-1.08,0.41-2.16,1.24-3.24c0.19-0.25,0.29-0.48,0.29-0.67c0-0.57-0.42-0.86-1.24-0.86
	c-2.16,0-3.82,1.69-4.96,5.06c-0.64,1.91-0.95,6.58-0.95,14.03v6.97l0.1,8.4c0,1.72,0.86,2.64,2.58,2.77
	c1.01,0.06,2.22,0.1,3.63,0.1c0.7,0.06,1.05,0.29,1.05,0.67c0,0.51-0.29,0.76-0.86,0.76h-1.91c-0.57-0.06-3.34-0.1-8.3-0.1
	c0.25,0-1.18,0.03-4.29,0.1l-4.68,0.1h-3.63c-0.64,0.06-1.37,0.1-2.19,0.1c-0.7,0-1.05-0.22-1.05-0.67c0-0.45,0.44-0.67,1.34-0.67
	c2.61-0.06,4.16-0.32,4.68-0.76c0.57-0.51,0.86-1.94,0.86-4.29l-0.1-25.76c0-2.16-0.32-3.66-0.95-4.48
	c-0.57-0.83-1.91-1.34-4.01-1.53c-1.66-0.13-2.61-0.22-2.86-0.29c-0.19-0.06-0.29-0.29-0.29-0.67c0-0.38,0.25-0.57,0.76-0.57
	c0.57,0,1.11,0.03,1.62,0.1h1.91c4.9,0,10.17-1.02,15.84-3.05c0.32,1.27,0.48,2.74,0.48,4.39v4.01c1.2-3.12,2.51-5.31,3.91-6.58
	c1.46-1.27,3.34-1.91,5.63-1.91c2.16,0,3.91,0.67,5.25,2C669.63,425.55,670.33,427.24,670.33,429.27z M719.99,459.62
	c0,0.51-0.51,1.21-1.53,2.1c-2.73,2.48-6.11,3.72-10.11,3.72c-2.61,0-4.51-0.54-5.73-1.62c-1.15-1.08-1.91-3.02-2.29-5.82
	c-2.86,5.22-6.77,7.82-11.74,7.82c-2.73,0-4.96-0.86-6.68-2.58c-1.65-1.72-2.48-3.94-2.48-6.68c0-8.02,6.87-12.75,20.61-14.22v-2
	c0-6.36-0.22-10.27-0.67-11.74l-0.1-0.48c-0.89-3.18-3.15-4.77-6.77-4.77c-2.1,0-3.78,0.6-5.06,1.81c-1.27,1.21-1.91,2.39-1.91,3.53
	c0,0.64,0.76,1.02,2.29,1.15c2.29,0.19,3.44,1.59,3.44,4.2c0,1.4-0.48,2.58-1.43,3.53c-0.89,0.89-2.06,1.34-3.53,1.34
	c-1.84,0-3.37-0.54-4.58-1.62c-1.15-1.15-1.72-2.58-1.72-4.29c0-2.74,1.37-5.22,4.1-7.44c2.74-2.23,6.33-3.34,10.78-3.34
	c6.62,0,11.23,1.18,13.84,3.53c2.1,1.97,3.15,5.41,3.15,10.31v16.32c0,3.18,0.04,5.03,0.1,5.53c0.32,2.67,1.24,4.01,2.77,4.01
	c1.09,0,2.42-0.76,4.01-2.29c0.32-0.32,0.57-0.48,0.76-0.48C719.83,459.14,719.99,459.3,719.99,459.62z M700.05,448.26v-4.68
	c-6.17,1.21-9.26,4.71-9.26,10.5c0,4.45,1.53,6.68,4.58,6.68c1.72,0,2.93-0.95,3.63-2.86C699.7,455.99,700.05,452.78,700.05,448.26z
	 M743.78,403.6c0,1.78-0.6,3.31-1.81,4.58c-1.2,1.27-2.67,1.91-4.39,1.91c-1.78,0-3.27-0.6-4.48-1.81c-1.2-1.21-1.81-2.74-1.81-4.58
	c0-1.78,0.61-3.24,1.81-4.39c1.21-1.15,2.77-1.72,4.68-1.72c1.72,0,3.15,0.57,4.29,1.72C743.21,400.46,743.78,401.89,743.78,403.6z
	 M750.65,464.1c0,0.45-0.29,0.67-0.86,0.67l-12.69-0.19l-9.16,0.19c-0.38,0-0.86,0.03-1.43,0.1c-0.51,0-0.79,0-0.86,0
	c-0.76,0-1.15-0.25-1.15-0.76c0-0.38,0.73-0.6,2.19-0.67c2.16-0.06,3.44-0.29,3.82-0.67c0.38-0.45,0.57-1.72,0.57-3.82v-27.39
	c0-2.42-0.22-3.85-0.67-4.29c-0.38-0.51-1.62-0.76-3.72-0.76c-1.34,0-2.13-0.03-2.39-0.1c-0.19-0.06-0.29-0.29-0.29-0.67
	c0-0.45,0.48-0.67,1.43-0.67c7-0.06,12.98-1.15,17.94-3.24c0.13,0.76,0.29,2.86,0.48,6.3l0.1,12.12v17.94
	c0,2.61,0.23,4.13,0.67,4.58c0.51,0.45,2.16,0.67,4.96,0.67C750.3,463.43,750.65,463.66,750.65,464.1z M782.62,464.01
	c0,0.51-1.21,0.76-3.63,0.76c-0.57,0-2.36-0.06-5.34-0.19c-1.53-0.06-3.02-0.1-4.48-0.1c-1.4,0-4.01,0.06-7.82,0.19l-2.86,0.1
	c-1.4,0.06-2.1-0.16-2.1-0.67c0-0.51,0.73-0.73,2.19-0.67c2.22,0.06,3.49-0.16,3.82-0.67c0.38-0.51,0.57-2.42,0.57-5.73v-50.29
	c0-2.16-0.23-3.44-0.67-3.82c-0.45-0.45-1.75-0.67-3.91-0.67c-1.59,0-2.39-0.22-2.39-0.67c0-0.51,0.82-0.79,2.48-0.86
	c7.12-0.25,12.94-1.34,17.46-3.24c-0.07,1.91-0.1,13.07-0.1,33.49v23.76c0,4.33,0.1,6.87,0.29,7.63c0.25,0.7,1.05,1.02,2.39,0.95
	l2.86-0.1C782.2,463.24,782.62,463.5,782.62,464.01z M819.76,451.51c0,4.26-1.3,7.73-3.91,10.4c-2.61,2.61-5.98,3.91-10.11,3.91
	c-2.03,0-4.45-0.51-7.25-1.53c-2.29-0.83-3.78-1.24-4.48-1.24c-1.2,0-2,0.45-2.39,1.34c-0.38,0.89-0.67,1.34-0.86,1.34
	c-0.38,0-0.57-0.22-0.57-0.67c0-0.38,0.07-0.99,0.19-1.81c0.19-1.21,0.29-3.31,0.29-6.3c0-0.13,0-0.45,0-0.95
	c-0.06-0.51-0.1-1.21-0.1-2.1v-1.62c0-0.7,0.16-1.05,0.48-1.05c0.38,0,0.67,0.48,0.86,1.43c0.57,3.37,2.19,6.2,4.87,8.49
	c2.67,2.23,5.67,3.34,8.97,3.34c2.1,0,3.79-0.64,5.06-1.91c1.34-1.34,2-3.05,2-5.15c0-1.65-0.6-3.05-1.81-4.2
	c-0.89-0.83-3.27-1.88-7.16-3.15c-4.77-1.59-8.24-3.5-10.4-5.73c-2.1-2.29-3.15-5.18-3.15-8.68c0-3.75,1.28-6.93,3.82-9.54
	c2.55-2.61,5.67-3.91,9.35-3.91c1.4,0,3.82,0.45,7.25,1.34c0.51,0.13,0.89,0.19,1.15,0.19c1.4,0,2.45-0.86,3.15-2.58
	c0.13-0.32,0.29-0.48,0.48-0.48c0.45,0,0.67,0.38,0.67,1.15c0,0-0.03,0.6-0.1,1.81c-0.06,0.25-0.1,0.7-0.1,1.34
	c0,2.61,0.16,5.28,0.48,8.02v0.48c0,0.51-0.19,0.76-0.57,0.76c-0.32,0-0.57-0.29-0.76-0.86c-1.84-6.49-5.59-9.73-11.26-9.73
	c-2.1,0-3.85,0.57-5.25,1.72c-1.34,1.15-2,2.61-2,4.39c0,1.65,0.57,2.96,1.72,3.91c1.15,0.95,3.38,2.04,6.68,3.24
	c5.79,2.04,9.7,4.07,11.74,6.11C818.74,445.05,819.76,447.88,819.76,451.51z"/>
<path class="st1" d="M473.05,528.18c-2.02,0-3.75-0.36-5.18-1.09c-1.43-0.73-2.53-1.73-3.29-3.01c-0.74-1.3-1.12-2.79-1.12-4.47
	c0-1.7,0.29-3.27,0.86-4.72c0.57-1.47,1.4-2.75,2.49-3.84c1.09-1.09,2.39-1.94,3.89-2.55c1.51-0.63,3.19-0.94,5.04-0.94
	c2,0,3.72,0.36,5.15,1.09c1.43,0.73,2.53,1.74,3.29,3.03c0.76,1.28,1.15,2.76,1.15,4.44c0,1.7-0.3,3.28-0.89,4.75
	c-0.57,1.45-1.4,2.72-2.49,3.81c-1.09,1.09-2.39,1.95-3.89,2.58C476.57,527.87,474.9,528.18,473.05,528.18z M473.37,524.91
	c1.26,0,2.4-0.22,3.41-0.66c1.01-0.46,1.87-1.08,2.58-1.86c0.73-0.8,1.28-1.72,1.66-2.75c0.38-1.05,0.57-2.15,0.57-3.29
	c0-1.09-0.24-2.05-0.72-2.89c-0.48-0.84-1.17-1.49-2.09-1.95c-0.92-0.46-2.04-0.69-3.38-0.69c-1.24,0-2.38,0.23-3.41,0.69
	c-1.01,0.44-1.88,1.06-2.6,1.86c-0.71,0.78-1.25,1.7-1.63,2.75c-0.36,1.03-0.54,2.12-0.54,3.26c0,1.09,0.23,2.05,0.69,2.89
	c0.48,0.84,1.17,1.49,2.09,1.95C470.9,524.68,472.03,524.91,473.37,524.91z M499.58,512.43c1.32,0,2.43,0.27,3.35,0.8
	c0.92,0.53,1.56,1.33,1.92,2.38c0.38,1.03,0.42,2.3,0.11,3.81l-1.69,8.47h-3.58l1.66-8.39c0.25-1.24,0.13-2.2-0.34-2.89
	c-0.48-0.71-1.35-1.06-2.6-1.06c-1.32,0-2.4,0.36-3.26,1.09c-0.86,0.73-1.44,1.83-1.75,3.32l-1.6,7.93h-3.58l3.03-15.29h3.41
	l-0.86,4.35l-0.57-1.37c0.73-1.09,1.63-1.88,2.72-2.38C497.05,512.69,498.26,512.43,499.58,512.43z M509.25,527.89l4.24-21.24h3.58
	l-1.89,9.5l-1.12,3.98l-0.57,3.61l-0.83,4.15H509.25z M518.49,528.09c-1.26,0-2.35-0.22-3.26-0.66c-0.92-0.46-1.62-1.13-2.12-2
	c-0.5-0.88-0.74-1.97-0.74-3.26c0-1.43,0.17-2.74,0.52-3.92c0.36-1.2,0.89-2.23,1.57-3.09c0.71-0.88,1.55-1.55,2.52-2
	c0.99-0.48,2.12-0.72,3.38-0.72c1.26,0,2.4,0.27,3.41,0.8c1.01,0.52,1.81,1.28,2.4,2.29c0.61,0.99,0.92,2.19,0.92,3.61
	c0,1.3-0.22,2.49-0.66,3.58c-0.42,1.09-1.02,2.03-1.8,2.83s-1.7,1.43-2.75,1.89C520.84,527.87,519.71,528.09,518.49,528.09z
	 M518.21,525.03c1.03,0,1.94-0.24,2.72-0.72c0.78-0.5,1.4-1.17,1.86-2.03c0.46-0.86,0.69-1.85,0.69-2.98c0-1.18-0.35-2.12-1.06-2.81
	c-0.71-0.69-1.7-1.03-2.98-1.03c-1.01,0-1.92,0.25-2.72,0.74c-0.78,0.48-1.4,1.15-1.86,2c-0.46,0.86-0.69,1.85-0.69,2.98
	c0,1.18,0.35,2.12,1.06,2.81C515.93,524.68,516.93,525.03,518.21,525.03z M537.86,528.09c-1.49,0-2.8-0.28-3.92-0.83
	c-1.11-0.57-1.97-1.35-2.58-2.35c-0.61-1.01-0.92-2.19-0.92-3.55c0-1.72,0.39-3.24,1.17-4.58c0.78-1.35,1.85-2.41,3.21-3.18
	c1.37-0.78,2.94-1.17,4.69-1.17c1.51,0,2.81,0.28,3.92,0.83c1.13,0.53,1.99,1.31,2.6,2.32c0.61,0.99,0.92,2.18,0.92,3.55
	c0,1.7-0.39,3.23-1.17,4.58s-1.86,2.42-3.23,3.21C541.2,527.7,539.63,528.09,537.86,528.09z M538.09,525.03
	c1.03,0,1.94-0.24,2.72-0.72c0.78-0.5,1.4-1.17,1.86-2.03c0.46-0.86,0.69-1.85,0.69-2.98c0-1.18-0.35-2.12-1.06-2.81
	c-0.71-0.69-1.7-1.03-2.98-1.03c-1.01,0-1.92,0.25-2.72,0.74c-0.78,0.48-1.4,1.15-1.86,2c-0.46,0.86-0.69,1.85-0.69,2.98
	c0,1.2,0.35,2.15,1.06,2.83C535.82,524.69,536.81,525.03,538.09,525.03z M557.05,528.09c-1.24,0-2.38-0.27-3.41-0.8
	c-1.01-0.53-1.82-1.3-2.43-2.29c-0.59-1.01-0.89-2.22-0.89-3.64c0-1.3,0.21-2.49,0.63-3.58c0.44-1.09,1.05-2.03,1.83-2.83
	s1.69-1.42,2.72-1.86c1.05-0.44,2.19-0.66,3.44-0.66c1.28,0,2.38,0.23,3.29,0.69c0.94,0.46,1.64,1.15,2.12,2.09
	c0.48,0.92,0.7,2.06,0.66,3.44c-0.04,1.89-0.38,3.55-1.03,4.98c-0.65,1.41-1.56,2.51-2.72,3.29
	C560.1,527.7,558.69,528.09,557.05,528.09z M557.97,525.03c1.03,0,1.94-0.24,2.72-0.72c0.78-0.5,1.4-1.17,1.86-2.03
	c0.46-0.86,0.69-1.85,0.69-2.98c0-1.18-0.35-2.12-1.06-2.81c-0.71-0.69-1.7-1.03-2.98-1.03c-1.01,0-1.92,0.25-2.72,0.74
	c-0.78,0.48-1.4,1.15-1.86,2c-0.46,0.86-0.69,1.85-0.69,2.98c0,1.18,0.35,2.12,1.06,2.81C555.7,524.68,556.69,525.03,557.97,525.03z
	 M561.72,527.89l0.69-3.49l0.97-4.06l0.49-4.09l0.72-3.64h3.58l-3.03,15.29H561.72z M571.24,527.89l3.03-15.29h3.41l-0.86,4.35
	l-0.31-1.26c0.71-1.24,1.6-2.09,2.69-2.55c1.09-0.48,2.41-0.72,3.98-0.72l-0.66,3.41c-0.15-0.04-0.3-0.06-0.43-0.06
	c-0.13-0.02-0.29-0.03-0.46-0.03c-1.39,0-2.55,0.37-3.46,1.12c-0.92,0.73-1.53,1.89-1.83,3.49l-1.52,7.53H571.24z M591.31,528.09
	c-1.24,0-2.38-0.27-3.41-0.8c-1.03-0.53-1.84-1.3-2.43-2.29c-0.59-1.01-0.89-2.22-0.89-3.64c0-1.3,0.21-2.49,0.63-3.58
	c0.44-1.09,1.05-2.03,1.83-2.83c0.78-0.8,1.69-1.42,2.72-1.86c1.05-0.44,2.19-0.66,3.41-0.66c1.26,0,2.35,0.22,3.26,0.66
	c0.92,0.44,1.62,1.1,2.12,1.98c0.5,0.88,0.74,1.97,0.74,3.26c0,1.43-0.18,2.75-0.54,3.95c-0.36,1.18-0.89,2.21-1.57,3.09
	c-0.69,0.86-1.53,1.53-2.52,2C593.69,527.85,592.57,528.09,591.31,528.09z M592.23,525.03c1.01,0,1.91-0.24,2.69-0.72
	c0.8-0.5,1.42-1.17,1.86-2.03c0.46-0.86,0.69-1.85,0.69-2.98c0-1.18-0.35-2.12-1.06-2.81c-0.69-0.69-1.68-1.03-2.98-1.03
	c-0.99,0-1.89,0.25-2.69,0.74c-0.8,0.48-1.43,1.15-1.89,2c-0.44,0.86-0.66,1.85-0.66,2.98c0,1.18,0.34,2.12,1.03,2.81
	C589.93,524.68,590.93,525.03,592.23,525.03z M595.95,527.89l0.72-3.49l0.94-4.06l0.49-4.09l1.92-9.59h3.58l-4.24,21.24H595.95z
	 M620.08,527.89l1.57-7.99l0.43,2.4l-5.84-14.46h3.69l4.67,11.56l-2.18,0.03l9.36-11.59h3.89l-11.57,14.48l1.26-2.43l-1.6,7.99
	H620.08z M641.05,528.09c-1.49,0-2.8-0.28-3.92-0.83c-1.1-0.57-1.96-1.35-2.58-2.35c-0.61-1.01-0.91-2.19-0.91-3.55
	c0-1.72,0.39-3.24,1.18-4.58c0.78-1.35,1.85-2.41,3.2-3.18c1.38-0.78,2.94-1.17,4.69-1.17c1.51,0,2.81,0.28,3.92,0.83
	c1.13,0.53,1.99,1.31,2.61,2.32c0.61,0.99,0.91,2.18,0.91,3.55c0,1.7-0.39,3.23-1.17,4.58c-0.79,1.35-1.86,2.42-3.24,3.21
	C644.39,527.7,642.82,528.09,641.05,528.09z M641.27,525.03c1.03,0,1.94-0.24,2.72-0.72c0.79-0.5,1.41-1.17,1.86-2.03
	c0.46-0.86,0.69-1.85,0.69-2.98c0-1.18-0.36-2.12-1.06-2.81c-0.7-0.69-1.7-1.03-2.98-1.03c-1.01,0-1.92,0.25-2.72,0.74
	c-0.78,0.48-1.4,1.15-1.86,2c-0.46,0.86-0.69,1.85-0.69,2.98c0,1.2,0.35,2.15,1.06,2.83C639.01,524.69,640,525.03,641.27,525.03z
	 M659.93,528.09c-1.28,0-2.38-0.27-3.29-0.8c-0.9-0.55-1.54-1.35-1.92-2.38c-0.38-1.05-0.42-2.33-0.11-3.84l1.69-8.47h3.58
	l-1.69,8.39c-0.23,1.24-0.11,2.21,0.35,2.92c0.48,0.69,1.34,1.03,2.58,1.03c1.28,0,2.34-0.36,3.2-1.09
	c0.88-0.73,1.46-1.83,1.75-3.32l1.6-7.93h3.55l-3.04,15.29h-3.41l0.86-4.35l0.57,1.37c-0.73,1.09-1.64,1.89-2.75,2.4
	C662.36,527.83,661.19,528.09,659.93,528.09z M674.29,527.89l3.04-15.29h3.41l-0.86,4.35l-0.32-1.26c0.7-1.24,1.6-2.09,2.69-2.55
	c1.09-0.48,2.42-0.72,3.98-0.72l-0.66,3.41c-0.16-0.04-0.3-0.06-0.43-0.06c-0.13-0.02-0.29-0.03-0.46-0.03
	c-1.39,0-2.55,0.37-3.46,1.12c-0.91,0.73-1.53,1.89-1.83,3.49l-1.51,7.53H674.29z M697.43,527.89l4.01-20.04h8.1
	c2.04,0,3.79,0.34,5.24,1.03c1.46,0.67,2.56,1.62,3.32,2.86c0.78,1.24,1.17,2.7,1.17,4.38c0,1.77-0.3,3.39-0.92,4.84
	c-0.59,1.45-1.44,2.69-2.55,3.72c-1.09,1.01-2.39,1.8-3.92,2.38c-1.53,0.55-3.23,0.83-5.1,0.83H697.43z M701.78,524.74h5.12
	c1.8,0,3.33-0.36,4.61-1.09c1.3-0.74,2.29-1.75,2.98-3.01c0.69-1.26,1.03-2.69,1.03-4.29c0-1.09-0.24-2.03-0.72-2.83
	c-0.48-0.8-1.19-1.42-2.15-1.86c-0.94-0.44-2.11-0.66-3.52-0.66h-4.61L701.78,524.74z M722.17,527.89l3.03-15.29h3.41l-0.86,4.35
	l-0.32-1.26c0.7-1.24,1.6-2.09,2.69-2.55c1.09-0.48,2.42-0.72,3.98-0.72l-0.66,3.41c-0.16-0.04-0.3-0.06-0.43-0.06
	c-0.14-0.02-0.29-0.03-0.46-0.03c-1.4,0-2.55,0.37-3.46,1.12c-0.91,0.73-1.53,1.89-1.83,3.49l-1.51,7.53H722.17z M743.01,528.09
	c-1.53,0-2.86-0.28-3.98-0.83c-1.13-0.57-2-1.35-2.64-2.35c-0.61-1.01-0.92-2.19-0.92-3.55c0-1.74,0.38-3.27,1.14-4.61
	c0.76-1.34,1.81-2.39,3.13-3.15c1.34-0.78,2.85-1.17,4.55-1.17c1.43,0,2.67,0.27,3.72,0.8c1.05,0.53,1.86,1.31,2.43,2.32
	c0.59,0.99,0.89,2.19,0.89,3.58c0,0.36-0.02,0.73-0.06,1.12c-0.04,0.38-0.1,0.73-0.17,1.06h-12.97l0.4-2.38h10.88l-1.46,0.8
	c0.16-0.97,0.09-1.78-0.2-2.43s-0.75-1.15-1.38-1.49c-0.63-0.34-1.38-0.52-2.26-0.52c-1.05,0-1.97,0.25-2.75,0.74
	c-0.76,0.48-1.35,1.16-1.77,2.06c-0.42,0.88-0.63,1.91-0.63,3.09c0,1.24,0.35,2.19,1.06,2.86c0.72,0.67,1.84,1,3.35,1
	c0.86,0,1.68-0.13,2.46-0.4c0.78-0.29,1.43-0.68,1.94-1.17l1.49,2.49c-0.8,0.71-1.75,1.24-2.86,1.6
	C745.33,527.92,744.19,528.09,743.01,528.09z M761.36,528.09c-1.24,0-2.37-0.27-3.41-0.8c-1.01-0.53-1.82-1.3-2.43-2.29
	c-0.59-1.01-0.89-2.22-0.89-3.64c0-1.3,0.21-2.49,0.63-3.58c0.44-1.09,1.05-2.03,1.83-2.83c0.78-0.8,1.69-1.42,2.72-1.86
	c1.05-0.44,2.19-0.66,3.44-0.66c1.28,0,2.37,0.23,3.29,0.69c0.94,0.46,1.64,1.15,2.12,2.09c0.48,0.92,0.7,2.06,0.66,3.44
	c-0.04,1.89-0.38,3.55-1.03,4.98c-0.65,1.41-1.56,2.51-2.72,3.29C764.41,527.7,763,528.09,761.36,528.09z M762.28,525.03
	c1.03,0,1.94-0.24,2.72-0.72c0.78-0.5,1.4-1.17,1.86-2.03c0.46-0.86,0.69-1.85,0.69-2.98c0-1.18-0.35-2.12-1.06-2.81
	c-0.7-0.69-1.69-1.03-2.98-1.03c-1.01,0-1.91,0.25-2.72,0.74c-0.78,0.48-1.4,1.15-1.86,2c-0.46,0.86-0.69,1.85-0.69,2.98
	c0,1.18,0.35,2.12,1.06,2.81C760.01,524.68,761,525.03,762.28,525.03z M766.03,527.89l0.69-3.49l0.97-4.06l0.49-4.09l0.72-3.64h3.58
	l-3.04,15.29H766.03z M797.48,512.43c1.34,0,2.45,0.27,3.35,0.8c0.9,0.53,1.53,1.33,1.89,2.38c0.36,1.03,0.39,2.3,0.08,3.81
	l-1.69,8.47h-3.58l1.69-8.39c0.25-1.26,0.14-2.23-0.31-2.92c-0.46-0.69-1.29-1.03-2.49-1.03c-1.24,0-2.26,0.36-3.07,1.09
	c-0.78,0.71-1.32,1.8-1.63,3.29l-1.6,7.96h-3.58l1.69-8.39c0.25-1.26,0.14-2.23-0.32-2.92c-0.45-0.69-1.29-1.03-2.49-1.03
	c-1.24,0-2.26,0.36-3.07,1.09c-0.78,0.71-1.32,1.81-1.63,3.32l-1.6,7.93h-3.58l3.04-15.29h3.41l-0.83,4.21l-0.6-1.23
	c0.7-1.09,1.58-1.88,2.63-2.38c1.07-0.52,2.24-0.77,3.49-0.77c0.99,0,1.87,0.17,2.64,0.52c0.76,0.32,1.37,0.83,1.83,1.52
	c0.48,0.67,0.75,1.5,0.83,2.49l-1.72-0.37c0.78-1.37,1.78-2.4,3.01-3.09C794.51,512.78,795.91,512.43,797.48,512.43z M812.33,528.09
	c-1.34,0-2.59-0.16-3.75-0.49s-2.06-0.72-2.69-1.17l1.48-2.75c0.63,0.44,1.41,0.8,2.35,1.09c0.95,0.27,1.94,0.4,2.98,0.4
	c1.18,0,2.05-0.16,2.61-0.49c0.57-0.32,0.86-0.77,0.86-1.35c0-0.42-0.2-0.73-0.6-0.94c-0.4-0.21-0.92-0.38-1.54-0.52
	c-0.61-0.13-1.28-0.28-2-0.43c-0.71-0.15-1.38-0.36-2-0.63c-0.61-0.27-1.12-0.66-1.52-1.17c-0.4-0.52-0.6-1.2-0.6-2.06
	c0-1.09,0.3-2.01,0.91-2.78c0.61-0.76,1.46-1.35,2.55-1.75c1.11-0.42,2.38-0.63,3.81-0.63c1.03,0,2.04,0.11,3.04,0.34
	c0.99,0.23,1.81,0.55,2.46,0.97l-1.31,2.75c-0.69-0.44-1.43-0.74-2.24-0.92c-0.78-0.17-1.54-0.26-2.29-0.26
	c-1.16,0-2.03,0.18-2.61,0.54c-0.55,0.34-0.83,0.78-0.83,1.32c0,0.42,0.2,0.74,0.6,0.97c0.4,0.23,0.91,0.42,1.51,0.57
	c0.63,0.13,1.3,0.28,2,0.43c0.73,0.13,1.4,0.33,2,0.6c0.63,0.27,1.15,0.66,1.55,1.17c0.4,0.5,0.6,1.16,0.6,2
	c0,1.11-0.31,2.05-0.94,2.83c-0.61,0.76-1.47,1.35-2.58,1.75C815.02,527.9,813.76,528.09,812.33,528.09z"/>
</svg>
