<svg width="474" height="382" viewBox="0 0 474 382" fill="none" xmlns="http://www.w3.org/2000/svg">
<path d="M454.386 0.00240505H312.364C305.51 0.0020694 298.86 2.33357 293.508 6.61364C288.155 10.8937 284.418 16.8676 282.91 23.5533L211.15 341.856C210.367 345.327 210.354 348.928 211.11 352.406C211.866 355.884 213.374 359.154 215.527 361.988C217.681 364.821 220.428 367.149 223.577 368.809C226.725 370.468 230.198 371.418 233.753 371.594L379.754 378.787C387.572 379.172 395.263 376.699 401.392 371.831C407.521 366.962 411.669 360.03 413.062 352.327L453.771 127.285L456.8 128.15L464.591 85.4958L461.474 84.7167L472.837 21.8989C473.324 19.2082 473.211 16.4432 472.507 13.801C471.803 11.1589 470.524 8.70464 468.763 6.61328C467.001 4.52193 464.8 2.84497 462.316 1.70196C459.832 0.558942 457.126 -0.0219696 454.392 0.000635277L454.386 0.00240505Z" fill="#3F3D56"/>
<path d="M331.059 6.86328H314.482C309.721 6.86333 305.104 8.49158 301.396 11.4778C297.688 14.4639 295.112 18.6284 294.097 23.2799L225.215 338.985C224.819 340.803 224.819 342.685 225.216 344.502C225.613 346.32 226.398 348.03 227.517 349.517C228.637 351.003 230.063 352.23 231.7 353.115C233.337 353.999 235.145 354.52 237.002 354.641L382.528 364.179C386.634 364.448 390.695 363.196 393.936 360.662C397.178 358.128 399.372 354.489 400.102 350.44L458.879 24.1281C459.259 22.0161 459.172 19.8463 458.622 17.7719C458.072 15.6975 457.074 13.7691 455.697 12.1226C454.321 10.4762 452.6 9.15184 450.656 8.24309C448.712 7.33435 446.592 6.86333 444.446 6.86328H428.72C427.198 6.86324 425.718 7.36499 424.51 8.29085C423.302 9.21672 422.433 10.5151 422.037 11.9849C421.687 13.2829 420.92 14.4295 419.852 15.247C418.785 16.0645 417.479 16.5073 416.134 16.5068H341.475C338.843 16.5067 336.309 15.5135 334.378 13.7256C332.446 11.9378 331.261 9.48709 331.059 6.86328Z" fill="white"/>
<path d="M411.506 227.569C411.788 227.579 412.065 227.486 412.286 227.309C412.507 227.132 412.656 226.881 412.707 226.602L444.889 48.9863C444.92 48.8175 444.914 48.644 444.871 48.4778C444.829 48.3115 444.751 48.1564 444.643 48.023C444.536 47.8907 444.402 47.7835 444.249 47.7091C444.096 47.6347 443.928 47.595 443.758 47.5927L297.341 45.8633H297.328C297.062 45.8655 296.805 45.958 296.598 46.1255C296.392 46.293 296.249 46.5256 296.192 46.7853L258.253 218.636C258.216 218.804 258.215 218.978 258.252 219.145C258.288 219.313 258.36 219.471 258.463 219.609C258.565 219.745 258.696 219.857 258.846 219.938C258.996 220.018 259.162 220.064 259.332 220.072L411.506 227.569Z" fill="#E6E6E6"/>
<path d="M284.445 239.053C284.312 239.053 284.183 239.098 284.079 239.181C283.974 239.264 283.901 239.379 283.871 239.509L282.5 245.386C282.48 245.469 282.479 245.555 282.496 245.638C282.513 245.722 282.548 245.801 282.599 245.869C282.649 245.938 282.714 245.995 282.789 246.036C282.863 246.078 282.946 246.102 283.031 246.109L360.489 251.614C360.633 251.623 360.775 251.58 360.89 251.492C361.004 251.405 361.082 251.279 361.111 251.137L362.43 244.338C362.446 244.256 362.444 244.171 362.424 244.089C362.405 244.008 362.368 243.931 362.316 243.865C362.265 243.798 362.2 243.744 362.125 243.704C362.051 243.665 361.969 243.642 361.885 243.637L284.481 239.054L284.445 239.053Z" fill="#E6E6E6"/>
<path d="M378.553 273.442C378.692 273.453 378.831 273.415 378.945 273.333C379.059 273.251 379.139 273.131 379.173 272.995L380.852 266.182C380.872 266.098 380.874 266.011 380.858 265.927C380.841 265.842 380.806 265.762 380.756 265.693C380.705 265.623 380.64 265.566 380.565 265.524C380.49 265.482 380.406 265.457 380.32 265.451L281.401 258.533C281.267 258.522 281.133 258.558 281.022 258.635C280.912 258.712 280.831 258.825 280.794 258.954L279.05 264.842C279.025 264.926 279.019 265.014 279.033 265.101C279.046 265.188 279.079 265.27 279.129 265.343C279.179 265.415 279.244 265.476 279.32 265.52C279.396 265.564 279.48 265.59 279.568 265.597L378.553 273.442Z" fill="#E6E6E6"/>
<path d="M373.24 295.28C373.38 295.291 373.519 295.252 373.632 295.17C373.746 295.088 373.827 294.969 373.86 294.833L375.539 288.019C375.56 287.936 375.562 287.849 375.545 287.765C375.529 287.68 375.494 287.6 375.443 287.531C375.393 287.461 375.327 287.404 375.252 287.362C375.177 287.32 375.094 287.295 375.008 287.289L276.089 280.371C275.954 280.36 275.821 280.396 275.71 280.473C275.599 280.55 275.518 280.662 275.481 280.792L273.737 286.68C273.712 286.764 273.706 286.852 273.72 286.939C273.734 287.026 273.767 287.108 273.816 287.181C273.866 287.253 273.931 287.313 274.007 287.357C274.083 287.401 274.168 287.428 274.255 287.435L373.24 295.28Z" fill="#E6E6E6"/>
<path d="M201.734 372.165C201.734 377.105 156.518 377.631 100.867 381.109C45.2656 384.584 0 377.105 0 372.165C0 367.225 45.4769 357.287 100.867 363.221C156.518 369.184 201.734 367.225 201.734 372.165Z" fill="#E6E6E6"/>
<path d="M327.683 332.615C327.824 332.629 327.965 332.592 328.081 332.51C328.196 332.428 328.278 332.307 328.311 332.169L331.86 317.973C331.881 317.89 331.883 317.804 331.867 317.72C331.852 317.636 331.818 317.556 331.768 317.487C331.718 317.417 331.654 317.359 331.579 317.317C331.505 317.274 331.422 317.249 331.337 317.241L270.591 312.132C270.449 312.123 270.308 312.163 270.194 312.248C270.079 312.332 269.998 312.454 269.965 312.592L266.938 326.217C266.92 326.299 266.919 326.383 266.936 326.465C266.953 326.547 266.988 326.625 267.037 326.692C267.086 326.76 267.149 326.817 267.222 326.858C267.295 326.9 267.376 326.925 267.459 326.933L327.683 332.615Z" fill="#7F00BB"/>
<path d="M82.4044 274.767C83.1693 274.243 83.8099 273.558 84.2812 272.759C84.7524 271.961 85.0428 271.068 85.1318 270.145C85.2208 269.222 85.1064 268.291 84.7965 267.417C84.4865 266.543 83.9887 265.748 83.3381 265.087L85.7977 210.184L73.2756 211.589L74.0033 265.293C72.9649 266.459 72.3903 267.965 72.3887 269.526C72.387 271.087 72.9583 272.595 73.9943 273.763C75.0303 274.931 76.4588 275.678 78.0091 275.863C79.5594 276.048 81.1235 275.657 82.4049 274.765L82.4044 274.767Z" fill="#A0616A"/>
<path d="M105.248 367.707L112.375 368.96L119.419 342.066L110.081 340.217L105.248 367.707Z" fill="#A0616A"/>
<path d="M124.959 377.994L102.56 374.056L104.081 365.402L117.826 367.818C120.121 368.222 122.162 369.521 123.5 371.429C124.838 373.337 125.363 375.699 124.959 377.994L124.959 377.994Z" fill="#2F2E41"/>
<path d="M85.6867 371.275H92.9232L96.3655 343.363H85.6855L85.6867 371.275Z" fill="#A0616A"/>
<path d="M106.877 377.994L84.1341 377.995L84.1336 369.208L98.0894 369.208C100.42 369.207 102.655 370.133 104.303 371.781C105.951 373.429 106.877 375.664 106.877 377.994Z" fill="#2F2E41"/>
<path d="M115.877 361.269C115.764 361.27 115.651 361.263 115.539 361.249L107.022 360.549C106.634 360.503 106.26 360.379 105.921 360.184C105.583 359.99 105.288 359.728 105.053 359.416C104.819 359.103 104.651 358.747 104.559 358.367C104.467 357.988 104.453 357.594 104.517 357.208L112.973 315.489L107.661 287.468C107.617 287.24 107.493 287.036 107.311 286.892C107.129 286.749 106.901 286.676 106.669 286.688C106.438 286.699 106.218 286.794 106.051 286.955C105.884 287.116 105.781 287.331 105.761 287.562L97.9332 358.762C97.8602 359.512 97.4987 360.204 96.925 360.693C96.3512 361.182 95.6102 361.428 94.8581 361.381L86.8336 361.082C86.1305 361.032 85.4699 360.727 84.9767 360.223C84.4834 359.72 84.1915 359.053 84.1562 358.349L84.7973 272.309L126.399 267.109L129.305 311.992L129.293 312.04L118.674 359.068C118.521 359.695 118.163 360.253 117.655 360.652C117.148 361.051 116.522 361.268 115.877 361.269Z" fill="#2F2E41"/>
<path d="M98.5166 174.607C106.523 174.607 113.014 168.117 113.014 160.11C113.014 152.104 106.523 145.613 98.5166 145.613C90.5101 145.613 84.0195 152.104 84.0195 160.11C84.0195 168.117 90.5101 174.607 98.5166 174.607Z" fill="#A0616A"/>
<path d="M112.177 278.858C109.91 278.872 107.686 278.235 105.769 277.025C98.7447 272.636 90.7699 274.38 86.6405 275.811C86.2307 275.954 85.7937 276.003 85.3622 275.954C84.9308 275.905 84.5161 275.759 84.1491 275.527C83.7863 275.299 83.4797 274.992 83.2524 274.629C83.0251 274.266 82.8828 273.856 82.8363 273.43L75.3278 206.363C74.0694 195.126 80.8383 184.561 91.4227 181.242C91.8205 181.117 92.2248 180.999 92.6356 180.888C95.9294 179.995 99.3788 179.835 102.741 180.418C106.104 181.002 109.297 182.315 112.097 184.266C114.95 186.238 117.335 188.811 119.086 191.805C120.836 194.798 121.91 198.139 122.23 201.592L128.552 269.108C128.595 269.545 128.536 269.987 128.38 270.397C128.224 270.807 127.974 271.176 127.651 271.473C125.434 273.523 119.001 278.857 112.177 278.858Z" fill="#7F00BB"/>
<path d="M89.3091 220.745L72.369 218.882C71.8869 218.829 71.4219 218.673 71.0057 218.424C70.5895 218.175 70.2319 217.839 69.9571 217.44C69.6824 217.04 69.497 216.586 69.4136 216.108C69.3302 215.631 69.3507 215.141 69.4738 214.671L73.7862 198.235C73.9132 197.003 74.2831 195.809 74.8746 194.721C75.466 193.633 76.2672 192.673 77.2319 191.896C78.1966 191.119 79.3057 190.542 80.495 190.196C81.6843 189.851 82.9302 189.744 84.1609 189.883C85.3915 190.022 86.5824 190.404 87.6647 191.006C88.7471 191.608 89.6994 192.418 90.4666 193.39C91.2338 194.362 91.8008 195.477 92.1347 196.67C92.4687 197.862 92.5629 199.109 92.4121 200.338L93.0525 217.264C93.0708 217.749 92.9845 218.231 92.7993 218.68C92.6141 219.128 92.3345 219.531 91.9795 219.862C91.6244 220.192 91.2024 220.442 90.742 220.595C90.2815 220.748 89.7936 220.799 89.3115 220.746L89.3091 220.745Z" fill="#7F00BB"/>
<path d="M128.482 272.417C129.178 271.804 129.731 271.046 130.102 270.197C130.474 269.348 130.654 268.427 130.631 267.501C130.609 266.574 130.383 265.663 129.97 264.833C129.557 264.003 128.968 263.274 128.242 262.696L124.068 207.896L111.797 210.659L118.998 264.026C118.107 265.308 117.719 266.873 117.905 268.423C118.091 269.973 118.84 271.401 120.009 272.435C121.179 273.47 122.687 274.039 124.248 274.036C125.809 274.033 127.315 273.456 128.48 272.417H128.482Z" fill="#A0616A"/>
<path d="M107.093 217.3C106.738 216.969 106.458 216.566 106.273 216.118C106.088 215.67 106.002 215.187 106.02 214.703L106.66 197.777C106.522 196.554 106.627 195.316 106.967 194.133C107.307 192.95 107.877 191.846 108.645 190.884C109.412 189.922 110.361 189.12 111.438 188.524C112.515 187.928 113.699 187.551 114.922 187.413C116.145 187.275 117.383 187.379 118.566 187.719C119.749 188.06 120.853 188.63 121.815 189.397C122.778 190.164 123.579 191.113 124.175 192.19C124.771 193.267 125.148 194.451 125.286 195.674L129.599 212.11C129.722 212.579 129.742 213.069 129.659 213.547C129.576 214.025 129.39 214.479 129.115 214.879C128.841 215.278 128.483 215.614 128.067 215.863C127.651 216.112 127.186 216.268 126.704 216.321L109.763 218.184C109.281 218.237 108.793 218.185 108.333 218.033C107.872 217.88 107.45 217.629 107.095 217.298L107.093 217.3Z" fill="#7F00BB"/>
<path d="M97.655 175.153C97.3967 175.153 97.1392 175.124 96.8877 175.064L96.8139 175.047C84.0681 173.099 81.2509 165.714 80.6329 162.631C79.993 159.439 80.7214 156.358 82.3682 155.161C81.4704 152.327 81.6144 149.812 82.7973 147.687C84.8632 143.98 89.3379 142.729 89.9393 142.573C93.515 139.935 97.7932 141.696 98.5717 142.053C105.489 139.494 108.134 141.624 108.611 142.1C111.702 142.655 113.587 143.849 114.213 145.65C115.388 149.033 111.672 153.241 111.513 153.419L111.43 153.511L105.894 153.775C105.368 153.8 104.854 153.935 104.384 154.172C103.915 154.408 103.5 154.741 103.167 155.148C102.834 155.555 102.591 156.028 102.452 156.535C102.314 157.043 102.284 157.574 102.363 158.094C102.513 158.764 102.702 159.425 102.93 160.074C103.874 163.029 104.583 165.553 103.67 166.513C103.463 166.698 103.208 166.822 102.934 166.87C102.66 166.917 102.378 166.887 102.121 166.781C101.255 166.55 100.668 166.598 100.375 166.926C99.9204 167.433 100.059 168.717 100.766 170.541C100.987 171.118 101.047 171.745 100.938 172.353C100.829 172.961 100.556 173.528 100.148 173.992C99.8411 174.355 99.459 174.646 99.0284 174.847C98.5978 175.047 98.1288 175.152 97.6539 175.153H97.655Z" fill="#2F2E41"/>
</svg>
