<svg width="591" height="531" viewBox="0 0 591 531" fill="none" xmlns="http://www.w3.org/2000/svg">
<g clip-path="url(#clip0_715_20924)">
<path d="M100.535 342.667C120.057 340.948 138.091 338.939 157.008 333.586C175.345 328.397 192.99 319.711 206.044 305.528C220.084 290.274 227.663 270.462 233.01 250.741C235.991 239.745 238.441 228.596 240.753 217.443C243.261 205.342 245.489 193.187 247.438 180.979C251.317 156.679 254.086 132.235 255.746 107.649C255.947 104.664 256.13 101.679 256.298 98.692C256.401 96.8497 253.536 96.8556 253.432 98.692C252.069 122.928 249.616 147.069 246.075 171.115C242.58 194.741 238.108 218.264 232.434 241.466C227.627 261.122 221.404 281.085 209.077 297.447C197.517 312.791 180.821 322.818 162.793 328.813C144.448 334.914 125.106 337.349 105.936 339.161C103.585 339.383 102.888 339.594 100.535 339.802C98.7128 339.962 98.6959 342.829 100.535 342.667Z" fill="white"/>
<path d="M-207.704 302.676C-183.074 304.043 -158.694 308.339 -135.08 315.474C-111.456 322.595 -88.7536 332.476 -67.444 344.914C-46.8535 356.942 -27.7385 371.334 -10.4877 387.798C6.2545 403.785 21.1758 421.577 34.0036 440.847C46.8897 460.166 57.5688 480.869 65.8407 502.568C66.8494 505.223 67.821 507.893 68.7555 510.576C69.3593 512.305 72.1284 511.561 71.5184 509.814C63.7795 487.657 53.5774 466.439 41.1037 446.558C28.6326 426.676 13.9963 408.237 -2.53717 391.58C-19.3354 374.664 -38.0307 359.744 -58.2517 347.117C-100.709 320.67 -148.834 304.671 -198.675 300.433C-201.682 300.181 -204.691 299.974 -207.704 299.811C-209.547 299.71 -209.541 302.576 -207.704 302.676Z" fill="white"/>
<path d="M-73.7342 31.5021C-57.9859 36.5106 -43.0585 43.8051 -29.4301 53.1519C-15.504 62.768 -2.80328 74.0472 8.39069 86.7396C20.187 100.092 30.6745 114.545 39.7091 129.901C49.2919 146.114 57.6166 163.039 64.61 180.527C71.8111 198.48 77.8679 216.872 82.7438 235.591C87.7002 254.532 91.5717 273.741 94.3394 293.123C97.093 312.299 98.7594 331.616 99.3306 350.981C99.9064 369.498 99.359 388.033 97.6914 406.484C96.1664 423.698 93.3812 440.776 89.3583 457.582C85.7856 472.761 80.7507 487.559 74.3243 501.767C72.8356 504.991 71.256 508.171 69.5857 511.307C68.7191 512.934 71.1916 514.383 72.0598 512.753C79.1617 499.182 84.8327 484.909 88.981 470.165C93.6353 453.751 97.009 437.001 99.0718 420.065C101.358 401.691 102.472 383.19 102.406 364.675C102.365 345.223 101.207 325.789 98.9379 306.47C96.668 286.909 93.2978 267.492 88.8434 248.311C84.3998 229.098 78.7631 210.181 71.966 191.67C65.415 173.75 57.5712 156.329 48.4965 139.545C39.8535 123.529 29.7812 108.327 18.4024 94.1234C7.59612 80.5997 -4.74096 68.3738 -18.362 57.6904C-31.4963 47.4197 -46.0102 39.0477 -61.4769 32.8206C-65.2565 31.3162 -69.0884 29.9557 -72.9726 28.7391C-74.7356 28.1845 -75.4899 30.9497 -73.7342 31.5021Z" fill="white"/>
<path d="M96.219 529.894C209.412 529.894 301.172 526.186 301.172 521.613C301.172 517.04 209.412 513.332 96.219 513.332C-16.9736 513.332 -108.734 517.04 -108.734 521.613C-108.734 526.186 -16.9736 529.894 96.219 529.894Z" fill="#E6E6E6"/>
<path d="M277.299 262.245C277.198 262.692 277.131 263.146 277.101 263.603L241.528 284.125L232.882 279.147L223.664 291.215L242.161 304.398L282.744 272.382C284.4 272.994 286.202 273.088 287.912 272.652C289.622 272.215 291.159 271.268 292.317 269.936C293.476 268.605 294.202 266.952 294.398 265.198C294.595 263.445 294.253 261.672 293.418 260.118C292.582 258.563 291.294 257.299 289.723 256.495C288.152 255.69 286.373 255.383 284.624 255.614C282.874 255.845 281.236 256.603 279.927 257.787C278.619 258.972 277.702 260.527 277.299 262.245Z" fill="#FFB8B8"/>
<path d="M196.282 274.837L224.292 294.8L236.819 279.094L209.591 257.246C208.42 256.306 207.069 255.615 205.621 255.216C204.173 254.816 202.659 254.717 201.172 254.923C199.684 255.129 198.254 255.637 196.969 256.415C195.685 257.193 194.573 258.225 193.701 259.448C192.003 261.831 191.32 264.791 191.804 267.677C192.288 270.563 193.899 273.139 196.282 274.837Z" fill="#7F00BB"/>
<path d="M138.463 502.617L148.284 505.19L162.883 468.535L148.389 464.736L138.463 502.617Z" fill="#FFB8B8"/>
<path d="M164.834 519.273L133.969 511.186L137.094 499.261L156.034 504.224C159.196 505.052 161.9 507.103 163.551 509.926C165.201 512.748 165.663 516.111 164.834 519.273Z" fill="#2F2E41"/>
<path d="M225.763 509.611L235.757 507.826L233.627 468.428L218.877 471.063L225.763 509.611Z" fill="#FFB8B8"/>
<path d="M256.688 513.662L225.278 519.273L223.11 507.137L242.384 503.694C243.978 503.41 245.612 503.442 247.193 503.788C248.774 504.135 250.272 504.79 251.6 505.716C252.928 506.641 254.061 507.82 254.934 509.183C255.807 510.546 256.403 512.068 256.688 513.662Z" fill="#2F2E41"/>
<path d="M206.082 219.866C208.545 220.466 210.548 222.975 211.752 225.882C212.861 228.936 213.613 232.108 213.991 235.335C214.936 241.344 215.844 247.849 213.889 253.415C211.597 259.938 205.49 263.355 200.193 261.749C194.896 260.143 190.683 254.117 189.243 247.179C187.933 240.17 188.777 232.928 191.665 226.407C193.17 222.981 195.244 219.821 198 218.275C199.352 217.458 200.964 217.182 202.511 217.505C204.058 217.827 205.425 218.723 206.338 220.012" fill="#2F2E41"/>
<path d="M220.018 328.668L239.045 499.085L223.331 505.052L194.347 390.775L153.996 495.262L136.795 496.218C136.795 496.218 160.396 333.637 177.886 329.942L220.018 328.668Z" fill="#2F2E41"/>
<path d="M204.036 241.615C215.269 241.615 224.375 232.509 224.375 221.276C224.375 210.044 215.269 200.938 204.036 200.938C192.803 200.938 183.697 210.044 183.697 221.276C183.697 232.509 192.803 241.615 204.036 241.615Z" fill="#FFB8B8"/>
<path d="M212.766 250.146L190.787 247.279C190.787 247.279 176.453 264.48 177.409 294.104C178.364 323.728 175.02 332.807 175.02 332.807L220.847 333.635C214.222 324.526 241.931 272.209 212.766 250.146Z" fill="#7F00BB"/>
<path d="M224.572 337.777C224.114 337.781 223.657 337.82 223.205 337.895L195.087 307.963L197.953 298.407L184.097 292.195L175.496 313.219L215.95 345.398C215.733 347.15 216.054 348.926 216.87 350.49C217.687 352.055 218.96 353.334 220.522 354.157C222.083 354.98 223.858 355.309 225.61 355.099C227.362 354.889 229.009 354.15 230.332 352.981C231.654 351.812 232.589 350.269 233.013 348.555C233.437 346.842 233.329 345.04 232.703 343.39C232.078 341.739 230.965 340.318 229.513 339.316C228.06 338.313 226.337 337.777 224.572 337.777Z" fill="#FFB8B8"/>
<path d="M193.777 261.793L180.754 293.628L198.911 302.229L213.947 270.724C214.594 269.368 214.957 267.895 215.015 266.394C215.073 264.893 214.823 263.397 214.282 261.996C213.741 260.595 212.919 259.319 211.868 258.247C210.817 257.174 209.557 256.328 208.167 255.759C206.826 255.21 205.39 254.931 203.941 254.938C202.492 254.944 201.059 255.236 199.722 255.796C198.386 256.356 197.173 257.174 196.153 258.203C195.133 259.232 194.326 260.452 193.777 261.793Z" fill="#7F00BB"/>
<path d="M198.718 239.765C201.905 237.927 202.244 233.492 201.811 229.838C201.378 226.185 200.655 222.112 202.802 219.124C205.366 215.559 210.515 215.488 214.905 215.372C219.294 215.255 224.64 213.97 225.777 209.729C226.529 206.926 224.921 203.919 222.613 202.16C220.306 200.401 217.419 199.623 214.614 198.884C208.337 197.23 201.856 195.563 195.43 196.472C189.064 197.372 183.309 200.742 179.409 205.853C175.51 210.964 173.78 217.405 174.593 223.782C175.633 231.94 177.141 235.502 176.151 239.099C174.307 245.798 166.354 250.102 166.196 257.049C166.072 262.483 170.872 266.675 175.555 269.434C179.269 271.623 183.278 273.48 187.559 273.992C191.839 274.505 196.448 273.524 199.637 270.622C203.75 266.88 204.767 260.628 203.588 255.194C202.409 249.76 199.383 244.934 196.391 240.248" fill="#2F2E41"/>
<path d="M583.553 245.857H289.58C287.604 245.86 285.71 246.647 284.313 248.044C282.916 249.441 282.13 251.335 282.127 253.31V442.116C282.13 444.092 282.916 445.985 284.313 447.382C285.71 448.78 287.604 449.566 289.58 449.569H583.553C585.529 449.566 587.423 448.78 588.82 447.382C590.217 445.985 591.003 444.092 591.006 442.116V253.31C591.003 251.335 590.217 249.441 588.82 248.044C587.423 246.647 585.529 245.86 583.553 245.857ZM589.35 442.116C589.348 443.653 588.737 445.126 587.65 446.213C586.564 447.3 585.09 447.911 583.553 447.912H289.58C288.043 447.911 286.57 447.3 285.483 446.213C284.396 445.126 283.785 443.653 283.783 442.116V253.31C283.785 251.773 284.396 250.3 285.483 249.213C286.57 248.127 288.043 247.515 289.58 247.514H583.553C585.09 247.515 586.564 248.127 587.65 249.213C588.737 250.3 589.348 251.773 589.35 253.31V442.116Z" fill="#3F3D56"/>
<path d="M352.328 339.843H305.955C304.089 339.841 302.3 339.099 300.98 337.779C299.661 336.46 298.918 334.671 298.916 332.805V286.431C298.918 284.565 299.661 282.776 300.98 281.457C302.3 280.137 304.089 279.395 305.955 279.393H352.328C354.194 279.395 355.983 280.137 357.303 281.457C358.622 282.776 359.365 284.565 359.367 286.431V332.805C359.365 334.671 358.622 336.46 357.303 337.779C355.983 339.099 354.194 339.841 352.328 339.843Z" fill="#7F00BB"/>
<path d="M568.242 389.123H304.908C303.48 389.123 302.111 388.556 301.102 387.546C300.092 386.537 299.525 385.168 299.525 383.74C299.525 382.312 300.092 380.943 301.102 379.934C302.111 378.925 303.48 378.357 304.908 378.357H568.242C569.67 378.357 571.039 378.925 572.048 379.934C573.058 380.943 573.625 382.312 573.625 383.74C573.625 385.168 573.058 386.537 572.048 387.546C571.039 388.556 569.67 389.123 568.242 389.123Z" fill="#CCCCCC"/>
<path d="M568.42 363.037H305.086C303.658 363.037 302.289 362.47 301.28 361.46C300.27 360.451 299.703 359.082 299.703 357.654C299.703 356.227 300.27 354.857 301.28 353.848C302.289 352.839 303.658 352.271 305.086 352.271H568.42C569.847 352.271 571.216 352.839 572.226 353.848C573.235 354.857 573.802 356.227 573.802 357.654C573.802 359.082 573.235 360.451 572.226 361.46C571.216 362.47 569.847 363.037 568.42 363.037Z" fill="#CCCCCC"/>
<path d="M438.407 327.421H399.486C398.059 327.421 396.689 326.854 395.68 325.845C394.671 324.836 394.104 323.466 394.104 322.039C394.104 320.611 394.671 319.242 395.68 318.233C396.689 317.223 398.059 316.656 399.486 316.656H438.407C439.834 316.656 441.203 317.223 442.213 318.233C443.222 319.242 443.789 320.611 443.789 322.039C443.789 323.466 443.222 324.836 442.213 325.845C441.203 326.854 439.834 327.421 438.407 327.421Z" fill="#CCCCCC"/>
<path d="M568.417 300.929H399.486C398.059 300.929 396.689 300.362 395.68 299.353C394.671 298.343 394.104 296.974 394.104 295.547C394.104 294.119 394.671 292.75 395.68 291.741C396.689 290.731 398.059 290.164 399.486 290.164H568.417C569.845 290.164 571.214 290.731 572.223 291.741C573.233 292.75 573.8 294.119 573.8 295.547C573.8 296.974 573.233 298.343 572.223 299.353C571.214 300.362 569.845 300.929 568.417 300.929Z" fill="#CCCCCC"/>
<path d="M431.783 415.621H304.908C303.48 415.621 302.111 415.054 301.102 414.044C300.092 413.035 299.525 411.666 299.525 410.238C299.525 408.811 300.092 407.441 301.102 406.432C302.111 405.423 303.48 404.855 304.908 404.855H431.783C433.211 404.855 434.58 405.423 435.589 406.432C436.599 407.441 437.166 408.811 437.166 410.238C437.166 411.666 436.599 413.035 435.589 414.044C434.58 415.054 433.211 415.621 431.783 415.621Z" fill="#CCCCCC"/>
</g>
<defs>
<clipPath id="clip0_715_20924">
<rect width="591" height="530.356" fill="white"/>
</clipPath>
</defs>
</svg>
