<svg width="466" height="417" viewBox="0 0 466 417" fill="none" xmlns="http://www.w3.org/2000/svg">
<g clip-path="url(#clip0_715_20949)">
<path d="M2.71137 93.575C1.79906 93.8316 1.02578 94.4396 0.561164 95.2656C0.0965472 96.0916 -0.0214743 97.0681 0.232995 97.981L59.9913 311.397C60.248 312.31 60.8559 313.083 61.6819 313.547C62.5079 314.012 63.4845 314.13 64.3974 313.876L284.697 252.19C285.609 251.933 286.382 251.325 286.847 250.499C287.312 249.673 287.43 248.697 287.175 247.784L227.417 34.3676C227.16 33.4553 226.552 32.682 225.726 32.2174C224.9 31.7528 223.924 31.6348 223.011 31.8892L2.71137 93.575Z" fill="#E6E6E6"/>
<path d="M67.1639 303.8L277.095 245.017L220.24 41.9688L10.3086 100.751L67.1639 303.8Z" fill="white"/>
<path d="M38.0655 127.863C36.6649 128.255 36.0874 130.581 36.7783 133.049C37.4692 135.516 39.1709 137.204 40.5715 136.812L136.318 110.002C137.719 109.61 138.296 107.284 137.605 104.816C136.915 102.349 135.213 100.661 133.812 101.053L38.0655 127.863Z" fill="#E6E6E6"/>
<path d="M45.7745 155.402C44.3738 155.794 43.7964 158.12 44.4873 160.588C45.1781 163.055 46.8798 164.743 48.2805 164.351L144.027 137.541C145.428 137.149 146.005 134.823 145.314 132.355C144.623 129.888 142.922 128.2 141.521 128.592L45.7745 155.402Z" fill="#E6E6E6"/>
<path d="M53.3995 182.62C51.9989 183.013 51.4214 185.339 52.1123 187.806C52.8031 190.274 54.5049 191.962 55.9055 191.57L151.652 164.76C153.053 164.368 153.63 162.041 152.939 159.574C152.248 157.107 150.547 155.418 149.146 155.81L53.3995 182.62Z" fill="#E6E6E6"/>
<path d="M61.1085 210.157C59.7078 210.55 59.1304 212.876 59.8213 215.344C60.5121 217.811 62.2138 219.499 63.6145 219.107L159.361 192.297C160.762 191.905 161.339 189.579 160.648 187.111C159.957 184.644 158.256 182.955 156.855 183.348L61.1085 210.157Z" fill="#E6E6E6"/>
<path d="M182.403 87.7642C181.815 87.9282 181.265 88.2065 180.784 88.5833C180.303 88.96 179.902 89.4278 179.602 89.9599C179.302 90.492 179.11 91.078 179.037 91.6843C178.964 92.2906 179.011 92.9054 179.176 93.4935C179.341 94.0815 179.62 94.6314 179.997 95.1116C180.374 95.5918 180.843 95.9929 181.375 96.292C181.907 96.591 182.494 96.7822 183.1 96.8546C183.706 96.927 184.321 96.8792 184.909 96.7139L202.808 91.7019C203.995 91.3696 205.001 90.5794 205.606 89.5052C206.21 88.4311 206.363 87.1609 206.03 85.9741C205.698 84.7873 204.908 83.7811 203.834 83.1769C202.759 82.5726 201.489 82.4199 200.302 82.7522L182.403 87.7642Z" fill="#E6E6E6"/>
<path d="M189.964 114.768C189.375 114.932 188.825 115.21 188.345 115.587C187.864 115.964 187.462 116.432 187.163 116.964C186.863 117.496 186.671 118.082 186.598 118.688C186.525 119.295 186.572 119.909 186.737 120.497C186.901 121.085 187.18 121.635 187.558 122.115C187.935 122.596 188.403 122.997 188.936 123.296C189.468 123.595 190.054 123.786 190.661 123.859C191.267 123.931 191.882 123.883 192.47 123.718L210.369 118.706C211.556 118.373 212.562 117.583 213.166 116.509C213.77 115.435 213.923 114.165 213.591 112.978C213.258 111.791 212.468 110.785 211.394 110.181C210.32 109.577 209.05 109.424 207.863 109.756L189.964 114.768Z" fill="#E6E6E6"/>
<path d="M197.527 141.772C196.939 141.937 196.39 142.215 195.91 142.592C195.43 142.969 195.029 143.437 194.73 143.969C194.43 144.501 194.239 145.086 194.166 145.692C194.093 146.298 194.14 146.912 194.305 147.5C194.469 148.087 194.748 148.637 195.125 149.117C195.502 149.597 195.97 149.998 196.502 150.297C197.033 150.596 197.619 150.788 198.225 150.861C198.831 150.933 199.445 150.886 200.033 150.722L217.932 145.71C219.119 145.377 220.125 144.587 220.729 143.513C221.334 142.439 221.486 141.169 221.154 139.982C220.822 138.795 220.031 137.789 218.957 137.185C217.883 136.58 216.613 136.428 215.426 136.76L197.527 141.772Z" fill="#E6E6E6"/>
<path d="M205.09 168.774C203.904 169.108 202.9 169.898 202.297 170.972C201.694 172.046 201.541 173.315 201.873 174.501C202.205 175.687 202.995 176.692 204.068 177.297C205.141 177.901 206.41 178.055 207.596 177.724L225.495 172.712C226.681 172.379 227.686 171.588 228.289 170.515C228.892 169.441 229.044 168.172 228.712 166.986C228.38 165.8 227.591 164.794 226.518 164.19C225.445 163.586 224.176 163.432 222.989 163.762L205.09 168.774Z" fill="#E6E6E6"/>
<path d="M212.31 215.582C211.56 215.791 210.859 216.146 210.247 216.626C209.634 217.106 209.122 217.702 208.741 218.38C208.359 219.058 208.114 219.805 208.021 220.577C207.928 221.35 207.988 222.133 208.198 222.883C208.408 223.632 208.763 224.332 209.244 224.944C209.725 225.556 210.321 226.067 211 226.448C211.678 226.829 212.425 227.073 213.198 227.165C213.97 227.258 214.754 227.197 215.503 226.986L238.31 220.6C239.823 220.176 241.105 219.169 241.875 217.801C242.645 216.432 242.839 214.813 242.416 213.301C241.992 211.789 240.985 210.507 239.617 209.737C238.248 208.967 236.629 208.772 235.117 209.196L212.31 215.582Z" fill="#7F00BB"/>
<path d="M235.785 192.551L67.0117 239.809L67.4318 241.309L236.205 194.051L235.785 192.551Z" fill="#E6E6E6"/>
<path d="M405.312 394.248L391.776 397.521L372.713 346.869L392.691 342.039L405.312 394.248Z" fill="#A0616A"/>
<path d="M368.426 416.872L368.334 416.493C367.261 412.034 368.001 407.331 370.391 403.417C372.782 399.502 376.627 396.696 381.084 395.613L407.567 389.211L411.724 406.405L368.426 416.872Z" fill="#2F2E41"/>
<path d="M345.392 403.472L331.467 403.471L324.842 349.758L345.394 349.759L345.392 403.472Z" fill="#A0616A"/>
<path d="M348.762 416.792L304.217 416.79V416.4C304.217 411.812 306.04 407.412 309.284 404.168C312.528 400.924 316.928 399.102 321.516 399.102H321.517L348.763 399.103L348.762 416.792Z" fill="#2F2E41"/>
<path d="M324.83 382.5L311.309 221.357L367.281 211.04L367.502 211L383.885 221.531L378.183 280.836L404.437 373.297L381.767 379.262L355.471 293.51L349.454 267.434L346.37 301.319L348.659 384.883L324.83 382.5Z" fill="#2F2E41"/>
<path d="M309.578 225.013L309.43 224.825L328.771 79.1943L328.797 79.0035L328.933 78.8671C329.218 78.582 335.995 71.8853 342.965 71.8853C343.973 71.8853 344.931 71.8598 345.85 71.8365C351.184 71.6979 355.397 71.587 360.405 76.5953C365.507 81.6968 382.153 100.326 382.153 125.84C382.153 150.536 384.402 227.281 384.425 228.053L384.457 229.137L383.547 228.546C383.323 228.402 360.934 214.145 342.157 227.398C336.289 231.54 331.017 232.992 326.51 232.992C316.019 232.992 309.667 225.127 309.578 225.013Z" fill="#7F00BB"/>
<path d="M353.384 59.8686C366.904 52.478 371.872 35.5269 364.482 22.0071C357.091 8.4873 340.14 3.51858 326.62 10.9092C313.101 18.2998 308.132 35.251 315.522 48.7707C322.913 62.2905 339.864 67.2592 353.384 59.8686Z" fill="#A0616A"/>
<path d="M297.292 256.311C298.612 255.288 299.692 253.988 300.455 252.503C301.218 251.017 301.647 249.383 301.71 247.714C301.773 246.046 301.469 244.383 300.821 242.845C300.172 241.306 299.194 239.928 297.955 238.809L313.798 201.438L293.054 205.255L281.189 240.158C279.446 242.364 278.572 245.133 278.734 247.939C278.896 250.746 280.081 253.396 282.066 255.387C284.051 257.378 286.697 258.572 289.504 258.742C292.31 258.912 295.081 258.047 297.292 256.311Z" fill="#A0616A"/>
<path d="M281.988 227.241L287.09 216.47C286.775 216.28 286.515 216.011 286.337 215.689C281.57 207.428 310.362 138.828 312.281 134.278C311.988 131.803 308.966 105.578 311.176 96.738C313.777 86.3319 319.119 81.4822 329.037 80.5216C339.974 79.4944 342.925 94.3475 342.954 94.4984L342.964 132.683L330.411 176.637L301.783 235.038L281.988 227.241Z" fill="#7F00BB"/>
<path d="M343.569 45.9007C340.224 46.3358 337.702 42.9141 336.532 39.751C335.362 36.588 334.47 32.9055 331.562 31.1969C327.59 28.8626 322.507 31.6701 317.964 30.9C312.834 30.0302 309.499 24.5932 309.237 19.3964C308.976 14.1995 311.044 9.20133 313.073 4.40991L313.782 10.3646C313.687 8.34637 314.111 6.33764 315.015 4.5305C315.918 2.72335 317.271 1.17825 318.942 0.0429688L318.029 8.7805C318.601 3.88551 323.875 0.0925655 328.697 1.10696L328.554 6.31308C334.479 5.6085 340.456 4.90293 346.399 5.43972C352.342 5.9765 358.326 7.85681 362.831 11.7707C369.568 17.6252 372.029 27.2654 371.203 36.1529C370.377 45.0404 366.708 53.3897 362.884 61.455C361.922 63.4843 360.592 65.7742 358.361 66.0327C356.356 66.265 354.522 64.5894 353.899 62.6702C353.276 60.7509 353.58 58.6659 353.953 56.6829C354.517 53.6872 355.228 50.6253 354.698 47.6234C354.168 44.6216 352.008 41.6553 348.982 41.2874C345.956 40.9195 342.86 44.3784 344.315 47.057L343.569 45.9007Z" fill="#2F2E41"/>
<path d="M465.699 416.853H264.934V415.213H465.997L465.699 416.853Z" fill="#3F3D56"/>
</g>
<defs>
<clipPath id="clip0_715_20949">
<rect width="465.901" height="416.829" fill="white" transform="translate(0.0996094 0.0429688)"/>
</clipPath>
</defs>
</svg>
