<svg width="528" height="330" viewBox="0 0 528 330" fill="none" xmlns="http://www.w3.org/2000/svg">
<g clip-path="url(#clip0_715_21147)">
<path d="M525.264 176.664H407.586C406.861 176.663 406.165 176.374 405.652 175.861C405.139 175.348 404.85 174.652 404.85 173.927V101.131C404.85 100.406 405.139 99.7101 405.652 99.197C406.165 98.684 406.861 98.3954 407.586 98.3945H525.264C525.989 98.3954 526.685 98.684 527.198 99.197C527.711 99.7101 527.999 100.406 528 101.131V173.927C527.999 174.652 527.711 175.348 527.198 175.861C526.685 176.374 525.989 176.663 525.264 176.664Z" fill="white"/>
<path d="M525.264 176.664H407.586C406.861 176.663 406.165 176.374 405.652 175.861C405.139 175.348 404.85 174.652 404.85 173.927V101.131C404.85 100.406 405.139 99.7101 405.652 99.197C406.165 98.684 406.861 98.3954 407.586 98.3945H525.264C525.989 98.3954 526.685 98.684 527.198 99.197C527.711 99.7101 527.999 100.406 528 101.131V173.927C527.999 174.652 527.711 175.348 527.198 175.861C526.685 176.374 525.989 176.663 525.264 176.664ZM407.586 99.4892C407.151 99.4897 406.734 99.6628 406.426 99.9707C406.118 100.278 405.945 100.696 405.944 101.131V173.927C405.945 174.362 406.118 174.78 406.426 175.087C406.734 175.395 407.151 175.568 407.586 175.569H525.264C525.699 175.568 526.116 175.395 526.424 175.087C526.732 174.78 526.905 174.362 526.906 173.927V101.131C526.905 100.696 526.732 100.278 526.424 99.9707C526.116 99.6628 525.699 99.4897 525.264 99.4892H407.586Z" fill="#3F3D56"/>
<path d="M502.001 122.707H430.848C430.195 122.707 429.568 122.448 429.106 121.986C428.644 121.524 428.385 120.898 428.385 120.244C428.385 119.591 428.644 118.965 429.106 118.503C429.568 118.041 430.195 117.781 430.848 117.781H502.001C502.655 117.781 503.281 118.041 503.743 118.503C504.205 118.965 504.465 119.591 504.465 120.244C504.465 120.898 504.205 121.524 503.743 121.986C503.281 122.448 502.655 122.707 502.001 122.707Z" fill="#CCCCCC"/>
<path d="M502.001 139.674H430.848C430.195 139.674 429.568 139.415 429.106 138.953C428.644 138.491 428.385 137.864 428.385 137.211C428.385 136.558 428.644 135.931 429.106 135.469C429.568 135.008 430.195 134.748 430.848 134.748H502.001C502.655 134.748 503.281 135.008 503.743 135.469C504.205 135.931 504.465 136.558 504.465 137.211C504.465 137.864 504.205 138.491 503.743 138.953C503.281 139.415 502.655 139.674 502.001 139.674Z" fill="#CCCCCC"/>
<path d="M495.662 166.577C500.523 166.577 504.464 162.636 504.464 157.775C504.464 152.914 500.523 148.973 495.662 148.973C490.8 148.973 486.859 152.914 486.859 157.775C486.859 162.636 490.8 166.577 495.662 166.577Z" fill="#7F00BB"/>
<path d="M495.903 153.628V152.789H496.152V153.628C496.503 153.643 496.848 153.727 497.167 153.876C497.398 153.985 497.597 154.151 497.746 154.359C497.883 154.551 497.957 154.782 497.956 155.018C497.961 155.191 497.903 155.359 497.793 155.492C497.745 155.553 497.685 155.602 497.615 155.636C497.546 155.669 497.47 155.686 497.393 155.686C497.335 155.687 497.278 155.676 497.225 155.654C497.172 155.632 497.124 155.6 497.084 155.559C497.042 155.518 497.01 155.469 496.988 155.415C496.966 155.361 496.956 155.303 496.957 155.244C496.957 155.163 496.974 155.082 497.007 155.007L497.106 154.797C497.141 154.71 497.158 154.616 497.156 154.521C497.158 154.375 497.112 154.232 497.023 154.116C496.926 153.994 496.796 153.903 496.648 153.854C496.487 153.801 496.321 153.768 496.152 153.755V156.772L496.207 156.806C496.725 157.08 497.197 157.436 497.603 157.859C497.783 158.072 497.925 158.314 498.025 158.574C498.124 158.826 498.175 159.094 498.176 159.365C498.181 159.716 498.089 160.062 497.912 160.364C497.738 160.659 497.483 160.899 497.178 161.054C496.856 161.212 496.508 161.313 496.152 161.352V162.251H495.903V161.368C495.543 161.365 495.187 161.292 494.855 161.153C494.524 161.03 494.231 160.82 494.008 160.546C493.812 160.3 493.706 159.995 493.708 159.68C493.701 159.459 493.769 159.242 493.901 159.065C493.953 158.988 494.023 158.925 494.104 158.882C494.186 158.838 494.277 158.815 494.37 158.814C494.425 158.812 494.48 158.821 494.532 158.842C494.584 158.862 494.631 158.893 494.67 158.932C494.709 158.971 494.74 159.018 494.761 159.07C494.781 159.121 494.791 159.177 494.789 159.232C494.77 159.402 494.699 159.562 494.585 159.689C494.525 159.768 494.474 159.853 494.433 159.942C494.405 160.012 494.391 160.087 494.392 160.162C494.393 160.364 494.462 160.559 494.588 160.716C494.725 160.891 494.907 161.027 495.114 161.109C495.352 161.202 495.605 161.247 495.859 161.241H495.903V157.639L495.589 157.457C495.291 157.284 495.064 157.14 494.907 157.026C494.755 156.915 494.613 156.79 494.485 156.651C494.168 156.313 493.993 155.867 493.994 155.404C493.993 155.116 494.065 154.832 494.204 154.579C494.34 154.327 494.54 154.115 494.783 153.964C495.122 153.76 495.508 153.644 495.903 153.628ZM495.903 153.749C495.69 153.756 495.479 153.802 495.283 153.887C495.086 153.984 494.925 154.14 494.821 154.333C494.703 154.543 494.642 154.78 494.645 155.021C494.643 155.315 494.733 155.602 494.904 155.841C494.994 155.972 495.102 156.089 495.225 156.189C495.424 156.337 495.632 156.473 495.848 156.596L495.903 156.629V153.749ZM496.152 161.23C496.294 161.218 496.434 161.189 496.569 161.142C496.678 161.1 496.78 161.04 496.871 160.965C497.041 160.82 497.173 160.636 497.256 160.428C497.352 160.198 497.4 159.951 497.398 159.702C497.377 159.302 497.25 158.916 497.031 158.58C496.812 158.245 496.509 157.974 496.152 157.793V161.23Z" fill="white"/>
<path d="M445.101 127.937H327.424C326.699 127.936 326.003 127.648 325.49 127.135C324.977 126.622 324.688 125.926 324.688 125.2V52.4046C324.688 51.6791 324.977 50.9835 325.49 50.4705C326.003 49.9574 326.699 49.6688 327.424 49.668H445.101C445.827 49.6688 446.523 49.9574 447.036 50.4705C447.549 50.9835 447.837 51.6791 447.838 52.4046V125.2C447.837 125.926 447.549 126.622 447.036 127.135C446.523 127.648 445.827 127.936 445.101 127.937Z" fill="white"/>
<path d="M445.101 127.937H327.424C326.699 127.936 326.003 127.648 325.49 127.135C324.977 126.622 324.688 125.926 324.688 125.2V52.4046C324.688 51.6791 324.977 50.9835 325.49 50.4705C326.003 49.9574 326.699 49.6688 327.424 49.668H445.101C445.827 49.6688 446.523 49.9574 447.036 50.4705C447.549 50.9835 447.837 51.6791 447.838 52.4046V125.2C447.837 125.926 447.549 126.622 447.036 127.135C446.523 127.648 445.827 127.936 445.101 127.937ZM327.424 50.7627C326.989 50.7631 326.571 50.9363 326.264 51.2441C325.956 51.5519 325.783 51.9693 325.782 52.4046V125.2C325.783 125.636 325.956 126.053 326.264 126.361C326.571 126.669 326.989 126.842 327.424 126.842H445.101C445.537 126.842 445.954 126.669 446.262 126.361C446.57 126.053 446.743 125.636 446.743 125.2V52.4046C446.743 51.9693 446.57 51.5519 446.262 51.2441C445.954 50.9363 445.537 50.7631 445.101 50.7627H327.424Z" fill="#3F3D56"/>
<path d="M421.839 73.9807H350.686C350.032 73.9807 349.406 73.7212 348.944 73.2593C348.482 72.7974 348.223 72.171 348.223 71.5177C348.223 70.8645 348.482 70.238 348.944 69.7761C349.406 69.3142 350.032 69.0547 350.686 69.0547H421.839C422.493 69.0547 423.119 69.3142 423.581 69.7761C424.043 70.238 424.302 70.8645 424.302 71.5177C424.302 72.171 424.043 72.7974 423.581 73.2593C423.119 73.7212 422.493 73.9807 421.839 73.9807Z" fill="#CCCCCC"/>
<path d="M421.839 90.9475H350.686C350.032 90.9475 349.406 90.688 348.944 90.2261C348.482 89.7642 348.223 89.1377 348.223 88.4845C348.223 87.8313 348.482 87.2048 348.944 86.7429C349.406 86.281 350.032 86.0215 350.686 86.0215H421.839C422.493 86.0215 423.119 86.281 423.581 86.7429C424.043 87.2048 424.302 87.8313 424.302 88.4845C424.302 89.1377 424.043 89.7642 423.581 90.2261C423.119 90.688 422.493 90.9475 421.839 90.9475Z" fill="#CCCCCC"/>
<path d="M415.499 117.85C420.361 117.85 424.302 113.91 424.302 109.048C424.302 104.187 420.361 100.246 415.499 100.246C410.638 100.246 406.697 104.187 406.697 109.048C406.697 113.91 410.638 117.85 415.499 117.85Z" fill="#7F00BB"/>
<path d="M415.741 104.901V104.062H415.989V104.901C416.341 104.916 416.686 105.001 417.005 105.149C417.236 105.258 417.435 105.424 417.584 105.632C417.721 105.825 417.794 106.055 417.794 106.291C417.799 106.464 417.741 106.633 417.631 106.766C417.583 106.827 417.523 106.875 417.453 106.909C417.384 106.942 417.308 106.96 417.231 106.959C417.173 106.96 417.116 106.949 417.063 106.928C417.01 106.906 416.962 106.873 416.922 106.832C416.88 106.791 416.848 106.742 416.826 106.688C416.804 106.634 416.794 106.576 416.795 106.518C416.795 106.436 416.812 106.355 416.845 106.28L416.944 106.071C416.979 105.983 416.996 105.889 416.994 105.795C416.996 105.649 416.95 105.506 416.861 105.389C416.764 105.267 416.634 105.176 416.486 105.127C416.325 105.075 416.158 105.041 415.99 105.028V108.046L416.045 108.079C416.563 108.353 417.035 108.709 417.441 109.133C417.62 109.346 417.763 109.587 417.863 109.847C417.962 110.1 418.013 110.368 418.014 110.639C418.019 110.99 417.927 111.335 417.749 111.638C417.576 111.933 417.321 112.172 417.016 112.327C416.693 112.485 416.346 112.586 415.99 112.625V113.524H415.741V112.642C415.381 112.639 415.025 112.566 414.693 112.426C414.362 112.303 414.069 112.094 413.846 111.82C413.65 111.574 413.544 111.268 413.545 110.953C413.538 110.732 413.607 110.516 413.739 110.338C413.791 110.262 413.861 110.199 413.942 110.155C414.024 110.112 414.115 110.088 414.207 110.087C414.263 110.085 414.318 110.095 414.37 110.115C414.422 110.135 414.469 110.166 414.508 110.205C414.547 110.245 414.578 110.292 414.599 110.343C414.619 110.395 414.629 110.45 414.627 110.506C414.608 110.675 414.537 110.835 414.423 110.962C414.363 111.041 414.312 111.126 414.271 111.216C414.243 111.286 414.229 111.36 414.23 111.436C414.231 111.637 414.3 111.832 414.425 111.989C414.563 112.165 414.745 112.301 414.952 112.383C415.189 112.475 415.443 112.52 415.697 112.515H415.741V108.912L415.427 108.73C415.129 108.557 414.902 108.414 414.745 108.3C414.593 108.189 414.451 108.063 414.323 107.924C414.006 107.587 413.831 107.141 413.832 106.678C413.831 106.389 413.903 106.105 414.042 105.853C414.178 105.601 414.378 105.389 414.621 105.238C414.96 105.033 415.346 104.917 415.741 104.901ZM415.741 105.022C415.527 105.029 415.317 105.076 415.121 105.16C414.924 105.257 414.763 105.413 414.659 105.606C414.541 105.816 414.48 106.054 414.483 106.294C414.481 106.588 414.571 106.875 414.741 107.115C414.831 107.245 414.94 107.362 415.063 107.462C415.262 107.611 415.47 107.747 415.686 107.869L415.741 107.902V105.022ZM415.989 112.504C416.132 112.492 416.272 112.462 416.407 112.415C416.516 112.373 416.618 112.314 416.709 112.239C416.879 112.094 417.011 111.909 417.094 111.701C417.189 111.471 417.238 111.224 417.236 110.975C417.214 110.576 417.088 110.189 416.869 109.854C416.65 109.519 416.347 109.247 415.989 109.067V112.504Z" fill="white"/>
<path d="M201.158 117.077C200.133 117.003 199.104 117.154 198.143 117.521C197.183 117.888 196.315 118.46 195.6 119.199C194.885 119.937 194.34 120.823 194.005 121.795C193.669 122.767 193.551 123.8 193.658 124.822L171.035 135.428L182.108 142.208L201.894 131.097C203.599 130.803 205.138 129.894 206.218 128.542C207.298 127.19 207.844 125.488 207.753 123.76C207.662 122.032 206.941 120.397 205.725 119.165C204.51 117.934 202.885 117.19 201.158 117.077Z" fill="#FFB6B6"/>
<path d="M107.542 321.133L115.355 321.132L119.072 290.996L107.541 290.997L107.542 321.133Z" fill="#FFB6B6"/>
<path d="M105.549 318.583L120.935 318.582H120.936C123.537 318.582 126.031 319.615 127.869 321.454C129.708 323.293 130.742 325.787 130.742 328.387V328.706L105.549 328.707L105.549 318.583Z" fill="#2F2E41"/>
<path d="M147.409 321.133L155.223 321.132L158.94 290.996L147.408 290.997L147.409 321.133Z" fill="#FFB6B6"/>
<path d="M145.416 318.583L160.803 318.582H160.803C163.404 318.582 165.898 319.615 167.737 321.454C169.576 323.293 170.609 325.787 170.609 328.387V328.706L145.416 328.707L145.416 318.583Z" fill="#2F2E41"/>
<path d="M152.628 164.826L156.593 173.364L163.742 249.715L158.185 315.339H145.188L129.851 211.899L122.647 312.957L105.109 312.249L101.742 175.237L152.628 164.826Z" fill="#2F2E41"/>
<path d="M89.4347 94.3666L105.876 87.6777L129.081 88.9792L149.711 96.4973L156.594 173.362C138.646 183.162 120.466 185.837 101.969 178.829L84.8027 128.766L89.4347 94.3666Z" fill="#E4E4E4"/>
<path d="M143.294 98.5304L150.59 96.4984C150.59 96.4984 156.108 92.9104 157.923 103.576C159.739 114.242 169.081 130.833 169.081 130.833L185.074 122.309L192.478 138.479L167.222 153.779L140.625 126.98L143.294 98.5304Z" fill="#E4E4E4"/>
<path d="M103.274 73.4374C102.388 71.427 101.907 69.2618 101.858 67.0653C101.809 64.8689 102.192 62.6843 102.988 60.6362C103.783 58.5882 104.973 56.7167 106.492 55.1288C108.01 53.5409 109.826 52.2676 111.837 51.3817C113.847 50.4957 116.012 50.0143 118.209 49.9651C120.405 49.9159 122.59 50.2998 124.638 51.0949C126.686 51.89 128.557 53.0807 130.145 54.5991C131.733 56.1174 133.006 57.9336 133.892 59.944L133.988 60.1653C135.748 64.239 135.818 68.8452 134.182 72.9706C133.373 75.0132 132.168 76.8763 130.638 78.4535C129.108 80.0307 127.282 81.2911 125.265 82.1628C121.192 83.9231 116.585 83.9931 112.46 82.3573C108.335 80.7215 105.028 77.5139 103.268 73.4401L103.274 73.4374Z" fill="#FFB6B6"/>
<path d="M125.988 58.1271C129.466 58.7583 134.85 60.9483 137.837 58.379C136.362 56.655 134.506 55.2974 132.416 54.4135C132.004 54.2769 131.623 54.0615 131.294 53.7793C130.275 52.7499 131.062 50.9762 130.596 49.5844C130.37 49.0758 130.028 48.6268 129.599 48.2726C129.169 47.9185 128.663 47.6689 128.121 47.5436C127.084 47.2334 125.997 47.183 124.979 46.8068C122.568 45.9008 120.854 43.3081 118.383 42.6035C116.231 41.9808 114.064 42.9486 112.206 44.078C110.348 45.2075 108.51 46.5475 106.337 46.7619C104.712 46.9101 103.684 49.5819 102.053 49.6601C98.636 49.8264 98.8258 47.5741 98.573 51.164C98.4272 53.3063 95.3662 57.5681 95.4159 59.729C95.4665 61.1449 95.216 62.5473 95.2564 63.9676C95.3483 66.6727 96.4333 69.2492 98.3041 71.2052C99.8599 72.805 101.883 73.8841 103.193 75.7078C103.874 76.6759 104.346 77.806 105.139 78.6819C105.932 79.5579 107.275 80.0851 108.16 79.4597C109.045 78.8343 109.061 77.4809 109.5 76.4509C109.769 75.8195 110.229 75.2881 110.816 74.9312C111.402 74.5742 112.085 74.4096 112.77 74.4604C113.481 74.5534 114.152 74.8428 114.707 75.2963C115.263 75.7497 115.681 76.3492 115.914 77.0272C115.5 74.7512 114.407 72.6186 113.992 70.3408C113.577 68.0631 114.118 65.3421 116.08 64.4528C116.922 64.0609 118.059 63.9556 118.398 63.0526C118.605 62.5088 118.415 61.8661 118.495 61.2779C118.926 58.3952 123.719 57.682 125.988 58.1271Z" fill="#2F2E41"/>
<path d="M103.941 177.943C103.791 176.926 103.42 175.955 102.854 175.097C102.288 174.239 101.54 173.515 100.665 172.977C99.7886 172.44 98.8055 172.1 97.7842 171.983C96.763 171.867 95.7286 171.975 94.7539 172.301L79.4956 152.516L75.2773 164.795L90.4135 181.701C91.0701 183.303 92.2911 184.607 93.8453 185.368C95.3996 186.13 97.179 186.294 98.8464 185.831C100.514 185.368 101.953 184.309 102.892 182.855C103.831 181.401 104.204 179.654 103.941 177.943Z" fill="#FFB6B6"/>
<path d="M94.7048 98.0996L89.4345 94.3678C89.4345 94.3678 77.3776 93.6771 75.6236 103.576L53.5156 139.945L80.9268 177.761L94.2164 163.771L77.4477 144.176L91.5269 118.325L94.7048 98.0996Z" fill="#E4E4E4"/>
<path d="M223.105 103.862H222.828V96.2881C222.828 95.7124 222.715 95.1423 222.495 94.6105C222.274 94.0786 221.951 93.5953 221.544 93.1883C221.137 92.7812 220.654 92.4583 220.122 92.238C219.59 92.0177 219.02 91.9043 218.445 91.9043H202.397C201.822 91.9043 201.252 92.0177 200.72 92.238C200.188 92.4583 199.705 92.7812 199.298 93.1883C198.891 93.5953 198.568 94.0786 198.347 94.6105C198.127 95.1423 198.014 95.7124 198.014 96.2881V137.841C198.014 138.417 198.127 138.987 198.347 139.519C198.568 140.051 198.891 140.534 199.298 140.941C199.705 141.348 200.188 141.671 200.72 141.891C201.252 142.111 201.822 142.225 202.397 142.225H218.445C219.02 142.225 219.59 142.111 220.122 141.891C220.654 141.671 221.137 141.348 221.544 140.941C221.951 140.534 222.274 140.051 222.495 139.519C222.715 138.987 222.828 138.417 222.828 137.841V109.254H223.105V103.862Z" fill="#3F3D56"/>
<path d="M218.621 93.0449H216.526C216.622 93.2811 216.659 93.5373 216.633 93.7911C216.607 94.0448 216.519 94.2882 216.377 94.4999C216.235 94.7116 216.042 94.885 215.817 95.005C215.592 95.1249 215.341 95.1877 215.086 95.1877H205.893C205.638 95.1877 205.387 95.1249 205.162 95.005C204.937 94.885 204.744 94.7116 204.602 94.4999C204.46 94.2882 204.372 94.0448 204.346 93.791C204.32 93.5373 204.357 93.2811 204.453 93.0449H202.496C201.628 93.0449 200.795 93.3898 200.182 94.0038C199.568 94.6177 199.223 95.4504 199.223 96.3187V137.811C199.223 138.679 199.568 139.512 200.182 140.126C200.795 140.74 201.628 141.084 202.496 141.084H218.621C219.489 141.084 220.322 140.74 220.936 140.126C221.55 139.512 221.895 138.679 221.895 137.811V96.3187C221.895 95.4504 221.55 94.6177 220.936 94.0038C220.322 93.3898 219.489 93.0449 218.621 93.0449Z" fill="#7F00BB"/>
<path d="M363.367 78.2691H245.69C244.964 78.2682 244.269 77.9796 243.756 77.4666C243.243 76.9535 242.954 76.258 242.953 75.5324V2.73669C242.954 2.01113 243.243 1.31552 243.756 0.802472C244.269 0.289425 244.964 0.000830352 245.69 0H363.367C364.093 0.000830355 364.788 0.289425 365.301 0.802472C365.814 1.31552 366.103 2.01113 366.104 2.73669V75.5324C366.103 76.258 365.814 76.9535 365.301 77.4666C364.788 77.9796 364.093 78.2682 363.367 78.2691Z" fill="white"/>
<path d="M363.367 78.2691H245.69C244.964 78.2682 244.269 77.9796 243.756 77.4666C243.243 76.9535 242.954 76.258 242.953 75.5324V2.73669C242.954 2.01113 243.243 1.31552 243.756 0.802472C244.269 0.289425 244.964 0.000830352 245.69 0H363.367C364.093 0.000830355 364.788 0.289425 365.301 0.802472C365.814 1.31552 366.103 2.01113 366.104 2.73669V75.5324C366.103 76.258 365.814 76.9535 365.301 77.4666C364.788 77.9796 364.093 78.2682 363.367 78.2691ZM245.69 1.09467C245.254 1.09515 244.837 1.2683 244.529 1.57614C244.221 1.88397 244.048 2.30135 244.048 2.73669V75.5324C244.048 75.9677 244.221 76.3851 244.529 76.693C244.837 77.0008 245.254 77.1739 245.69 77.1744H363.367C363.802 77.1739 364.22 77.0008 364.528 76.693C364.835 76.3851 365.009 75.9677 365.009 75.5324V2.73669C365.009 2.30135 364.835 1.88397 364.528 1.57614C364.22 1.2683 363.802 1.09515 363.367 1.09467H245.69Z" fill="#3F3D56"/>
<path d="M340.105 24.3108H268.951C268.298 24.3108 267.672 24.0513 267.21 23.5894C266.748 23.1275 266.488 22.501 266.488 21.8478C266.488 21.1946 266.748 20.5681 267.21 20.1062C267.672 19.6443 268.298 19.3848 268.951 19.3848H340.105C340.758 19.3848 341.385 19.6443 341.847 20.1062C342.309 20.5681 342.568 21.1946 342.568 21.8478C342.568 22.501 342.309 23.1275 341.847 23.5894C341.385 24.0513 340.758 24.3108 340.105 24.3108Z" fill="#CCCCCC"/>
<path d="M340.105 41.2796H268.951C268.298 41.2796 267.672 41.0201 267.21 40.5582C266.748 40.0963 266.488 39.4698 266.488 38.8165C266.488 38.1633 266.748 37.5368 267.21 37.0749C267.672 36.613 268.298 36.3535 268.951 36.3535H340.105C340.758 36.3535 341.385 36.613 341.847 37.0749C342.309 37.5368 342.568 38.1633 342.568 38.8165C342.568 39.4698 342.309 40.0963 341.847 40.5582C341.385 41.0201 340.758 41.2796 340.105 41.2796Z" fill="#CCCCCC"/>
<path d="M333.767 68.1824C338.628 68.1824 342.569 64.2415 342.569 59.3803C342.569 54.519 338.628 50.5781 333.767 50.5781C328.906 50.5781 324.965 54.519 324.965 59.3803C324.965 64.2415 328.906 68.1824 333.767 68.1824Z" fill="#7F00BB"/>
<path d="M334.009 55.2331V54.3945H334.257V55.2331C334.608 55.2484 334.953 55.3328 335.272 55.4814C335.503 55.5901 335.703 55.7563 335.851 55.9643C335.989 56.1566 336.062 56.3872 336.061 56.6235C336.066 56.7962 336.008 56.9648 335.898 57.098C335.851 57.1586 335.79 57.2075 335.721 57.241C335.651 57.2745 335.575 57.2916 335.498 57.2911C335.441 57.2922 335.384 57.2815 335.331 57.2596C335.278 57.2378 335.23 57.2053 335.189 57.1642C335.148 57.1232 335.115 57.0742 335.093 57.0201C335.072 56.966 335.061 56.908 335.063 56.8497C335.063 56.7681 335.08 56.6873 335.112 56.6124L335.212 56.4028C335.247 56.3152 335.264 56.2213 335.261 56.1269C335.264 55.9807 335.217 55.8379 335.129 55.7215C335.032 55.5995 334.902 55.5083 334.754 55.4593C334.593 55.4065 334.426 55.3732 334.257 55.36V58.3779L334.312 58.411C334.831 58.6855 335.302 59.0412 335.708 59.4648C335.888 59.6775 336.031 59.9191 336.13 60.1793C336.229 60.4315 336.281 60.6999 336.282 60.9709C336.286 61.3217 336.195 61.6671 336.017 61.9695C335.843 62.2648 335.589 62.5041 335.283 62.6592C334.961 62.8172 334.614 62.918 334.257 62.9571V63.8564H334.009V62.9737C333.649 62.9708 333.293 62.8977 332.961 62.7585C332.629 62.6353 332.337 62.4258 332.114 62.1516C331.917 61.9058 331.811 61.6001 331.813 61.2854C331.806 61.0644 331.874 60.8476 332.006 60.6702C332.058 60.5937 332.128 60.5309 332.21 60.4872C332.291 60.4435 332.382 60.4202 332.475 60.4192C332.531 60.4173 332.586 60.4268 332.638 60.4471C332.689 60.4674 332.736 60.4982 332.776 60.5374C332.815 60.5767 332.846 60.6235 332.866 60.6752C332.887 60.7268 332.896 60.7821 332.894 60.8377C332.876 61.0075 332.804 61.1672 332.69 61.2945C332.631 61.3733 332.58 61.4582 332.538 61.5478C332.51 61.6177 332.496 61.6925 332.497 61.7679C332.498 61.9691 332.567 62.1641 332.693 62.3211C332.83 62.4969 333.012 62.6328 333.22 62.7146C333.457 62.8071 333.71 62.852 333.965 62.8468H334.009V59.2441L333.694 59.062C333.396 58.8892 333.169 58.7458 333.013 58.6317C332.86 58.5209 332.719 58.3953 332.591 58.2565C332.274 57.9189 332.098 57.4727 332.1 57.0096C332.098 56.7214 332.17 56.4375 332.31 56.1849C332.446 55.9329 332.645 55.7208 332.889 55.5697C333.228 55.3652 333.613 55.2495 334.009 55.2331ZM334.009 55.3545C333.795 55.3612 333.585 55.4079 333.388 55.4922C333.192 55.5895 333.031 55.7454 332.927 55.9382C332.808 56.1481 332.748 56.3856 332.751 56.6265C332.749 56.9203 332.839 57.2074 333.009 57.447C333.099 57.5773 333.207 57.6942 333.33 57.794C333.53 57.9426 333.738 58.0787 333.954 58.2014L334.009 58.2345V55.3545ZM334.257 62.8358C334.399 62.8239 334.54 62.7942 334.674 62.7475C334.784 62.7051 334.886 62.6455 334.977 62.5709C335.147 62.4259 335.279 62.2412 335.361 62.0331C335.457 61.8033 335.506 61.5565 335.504 61.3075C335.482 60.9079 335.355 60.521 335.136 60.1859C334.917 59.8508 334.614 59.5792 334.257 59.3986V62.8358Z" fill="white"/>
<path d="M240.172 329.101H0.628723C0.461976 329.101 0.302057 329.035 0.184148 328.917C0.0662398 328.799 0 328.639 0 328.472C0 328.306 0.0662398 328.146 0.184148 328.028C0.302057 327.91 0.461976 327.844 0.628723 327.844H240.172C240.339 327.844 240.499 327.91 240.617 328.028C240.735 328.146 240.801 328.306 240.801 328.472C240.801 328.639 240.735 328.799 240.617 328.917C240.499 329.035 240.339 329.101 240.172 329.101Z" fill="#CACACA"/>
</g>
<defs>
<clipPath id="clip0_715_21147">
<rect width="528" height="329.102" fill="white"/>
</clipPath>
</defs>
</svg>
