<svg width="310" height="424" viewBox="0 0 310 424" fill="none" xmlns="http://www.w3.org/2000/svg">
<g clip-path="url(#clip0_715_21181)">
<path d="M274.182 423.316H139.323C119.707 423.316 103.75 407.359 103.75 387.743V35.5725C103.75 15.9567 119.707 0 139.323 0H274.182C293.798 0 309.755 15.9567 309.755 35.5725V387.743C309.755 407.359 293.798 423.316 274.182 423.316Z" fill="#DADBDC"/>
<path d="M274.28 413.685H139.224C124.706 413.685 112.891 401.869 112.891 387.351V35.2712C112.891 20.7531 124.706 8.9375 139.224 8.9375H274.28C288.798 8.9375 300.613 20.7531 300.613 35.2712V387.351C300.613 401.869 288.798 413.685 274.28 413.685Z" fill="white"/>
<path d="M225.852 32.3739H187.661C182.619 32.3739 178.52 28.2747 178.52 23.2328C178.52 18.1909 182.619 14.0918 187.661 14.0918H225.852C230.894 14.0918 234.993 18.1909 234.993 23.2328C234.993 28.2747 230.894 32.3739 225.852 32.3739Z" fill="#DADBDC"/>
<path d="M264.824 139.889H153.072C150.858 139.889 149.057 137.598 149.057 134.791C149.057 131.984 150.858 129.693 153.072 129.693H264.824C267.038 129.693 268.84 131.984 268.84 134.791C268.84 137.598 267.038 139.889 264.824 139.889Z" fill="#DADBDC"/>
<path d="M264.824 162.479H153.072C150.858 162.479 149.057 160.188 149.057 157.381C149.057 154.574 150.858 152.283 153.072 152.283H264.824C267.038 152.283 268.84 154.574 268.84 157.381C268.84 160.188 267.038 162.479 264.824 162.479Z" fill="#DADBDC"/>
<path d="M232.778 185.07H153.072C150.858 185.07 149.057 182.78 149.057 179.973C149.057 177.165 150.858 174.875 153.072 174.875H232.778C234.992 174.875 236.794 177.165 236.794 179.973C236.794 182.78 234.992 185.07 232.778 185.07Z" fill="#DADBDC"/>
<path d="M206.751 317.891C233.096 317.891 254.454 296.534 254.454 270.189C254.454 243.843 233.096 222.486 206.751 222.486C180.406 222.486 159.049 243.843 159.049 270.189C159.049 296.534 180.406 317.891 206.751 317.891Z" fill="#7F00BB"/>
<path d="M194.064 271.179C196.529 276.005 198.994 280.837 201.459 285.663C202.165 287.052 204.239 286.612 204.651 285.244C207.884 274.462 213.889 264.636 221.983 256.822C223.603 255.258 221.131 252.793 219.511 254.35C210.991 262.576 204.686 272.974 201.278 284.315L204.469 283.896C202.004 279.07 199.539 274.238 197.074 269.413C196.054 267.408 193.038 269.175 194.057 271.172H194.064V271.179Z" fill="white"/>
<path d="M78.1559 212.485L66.5917 216.431L66.4102 199.734L76.9339 199.615L78.1559 212.485Z" fill="#F3A3A6"/>
<path d="M67.7654 204.343C74.1521 204.343 79.3296 199.166 79.3296 192.779C79.3296 186.392 74.1521 181.215 67.7654 181.215C61.3786 181.215 56.2012 186.392 56.2012 192.779C56.2012 199.166 61.3786 204.343 67.7654 204.343Z" fill="#F3A3A6"/>
<path d="M70.9289 191.598C68.9945 191.564 67.7026 189.622 66.9275 187.842C66.1523 186.068 65.3563 184.022 63.5616 183.302C62.0881 182.716 59.5462 186.815 58.373 185.747C57.151 184.629 58.2683 178.805 59.5392 177.751C60.8102 176.696 62.563 176.473 64.211 176.375C68.2403 176.145 72.2906 176.424 76.2501 177.206C78.6942 177.688 81.2221 178.428 83.0029 180.174C85.2584 182.388 85.866 185.761 86.0615 188.917C86.264 192.143 86.1104 195.53 84.5741 198.379C83.0308 201.221 79.7696 203.344 76.6062 202.66C76.271 200.949 76.5713 199.189 76.6761 197.443C76.7808 195.705 76.6272 193.826 75.5518 192.45C74.4763 191.075 72.1998 190.551 70.9778 191.794" fill="#2F2E43"/>
<path d="M85.1954 195.447C86.3407 194.588 87.7164 193.862 89.1409 194.022C90.6842 194.19 91.9971 195.447 92.4091 196.941C92.8211 198.436 92.3951 200.091 91.4594 201.327C90.5236 202.563 89.12 203.387 87.6256 203.806C86.7597 204.05 85.8169 204.155 84.9859 203.806C83.7639 203.296 83.0935 201.753 83.5544 200.51" fill="#2F2E43"/>
<path d="M42.1642 304.698C41.4379 308.504 42.8835 311.961 45.4044 312.415C47.9184 312.869 50.551 310.145 51.2773 306.339C51.5915 304.824 51.5217 303.253 51.0748 301.765L59.9714 242.122L47.9882 240.006L44.0427 300.501C43.079 301.738 42.4296 303.176 42.1642 304.705V304.698Z" fill="#F3A3A6"/>
<path d="M66.3826 208.77L58.2192 208.86C52.4581 209.796 50.9218 212.897 49.6787 218.595C47.7723 227.289 45.3422 238.874 45.8519 239.035C46.669 239.3 60.6354 245.683 67.7024 244.105L66.3826 208.77Z" fill="#7F00BB"/>
<path d="M76.4062 398.33L65.541 398.451L65.7132 413.862L76.5784 413.741L76.4062 398.33Z" fill="#F3A3A6"/>
<path d="M55.2099 423.316C54.0647 423.33 53.0521 423.316 52.284 423.253C49.3929 423.023 46.6206 420.921 45.2169 419.692C44.5885 419.14 44.379 418.246 44.6932 417.478C44.9167 416.926 45.3776 416.507 45.9502 416.333L53.5549 414.07L65.8104 405.6L65.9501 405.844C66.006 405.935 67.242 408.107 67.661 409.58C67.8216 410.139 67.7867 410.607 67.5563 410.97C67.3956 411.221 67.1722 411.368 66.9906 411.459C67.2141 411.689 67.9194 412.157 70.0842 412.478C73.2336 412.946 73.8691 409.671 73.89 409.531L73.911 409.419L74.0018 409.357C75.4892 408.372 76.404 407.925 76.7252 408.016C76.9277 408.072 77.2559 408.169 78.2476 417.052C78.3383 417.331 78.9878 419.37 78.5828 421.333C78.1428 423.47 68.8342 422.834 66.9767 422.688C66.9208 422.695 59.9655 423.267 55.196 423.316H55.2099Z" fill="#2F2E43"/>
<path d="M107.21 385.852L98.0547 391.705L106.356 404.69L115.511 398.838L107.21 385.852Z" fill="#F3A3A6"/>
<path d="M95.3286 420.754C94.0507 420.768 92.8775 420.628 92.0395 420.489C91.2155 420.349 90.566 419.707 90.4264 418.882C90.3216 418.289 90.4962 417.695 90.8873 417.248L96.1386 411.306L102.053 397.633L102.305 397.765C102.396 397.814 104.595 399.001 105.734 400.028C106.167 400.419 106.383 400.831 106.383 401.264C106.383 401.564 106.271 401.809 106.16 401.976C106.474 402.053 107.319 402.074 109.323 401.201C112.242 399.93 111.048 396.815 110.992 396.69L110.95 396.585L110.999 396.487C111.739 394.867 112.284 394.001 112.598 393.904C112.801 393.848 113.129 393.75 118.673 400.761C118.897 400.95 120.531 402.332 121.222 404.211C121.977 406.257 113.75 410.642 112.088 411.501C112.039 411.543 103.443 417.933 99.9096 419.762C98.506 420.489 96.837 420.726 95.3146 420.74L95.3286 420.754Z" fill="#2F2E43"/>
<path d="M82.9529 269.328L52.534 269.664L50.0898 297.988L63.33 402.415L78.8607 402.24L71.9822 341.919L97.7782 396.165L111.472 386.346L91.235 335.662C91.235 335.662 97.7712 291.242 92.1288 280.257C86.4864 269.273 82.9599 269.314 82.9599 269.314V269.328H82.9529Z" fill="#2F2E43"/>
<path d="M98.1009 270.887L49.791 271.424L63.5898 208.806L84.6442 208.568L98.1009 270.887Z" fill="#7F00BB"/>
<path d="M102.82 304.029C103.63 307.821 102.261 311.306 99.7543 311.816C97.2473 312.325 94.5588 309.665 93.7487 305.873C93.3996 304.365 93.4345 302.793 93.8465 301.292L83.623 241.858L95.5574 239.477L100.844 299.874C101.835 301.09 102.513 302.514 102.82 304.036V304.029Z" fill="#F3A3A6"/>
<path d="M76.4799 208.659L84.6433 208.568C90.4254 209.378 92.0246 212.444 93.4003 218.114C95.4952 226.767 98.1838 238.289 97.681 238.464C96.864 238.743 83.0512 245.433 75.9492 244.015L76.4869 208.659H76.4799Z" fill="#7F00BB"/>
<path d="M150.195 423.317C150.195 423.694 149.888 424.001 149.511 424.001H0.684355C0.307262 424.001 0 423.694 0 423.317C0 422.94 0.307262 422.633 0.684355 422.633H149.511C149.888 422.633 150.195 422.94 150.195 423.317Z" fill="#3F3D58"/>
</g>
<defs>
<clipPath id="clip0_715_21181">
<rect width="309.755" height="424" fill="white"/>
</clipPath>
</defs>
</svg>
